<svg xmlns="http://www.w3.org/2000/svg" width="85" height="85" viewBox="0 0 85 85">
  <g id="Grupo_114639" data-name="Grupo 114639" transform="translate(-285 -3540)">
    <g id="Elipse_6347" data-name="Elipse 6347" transform="translate(285 3540)" fill="#fff" stroke="#242ca3" stroke-width="2">
      <circle cx="42.5" cy="42.5" r="42.5" stroke="none"/>
      <circle cx="42.5" cy="42.5" r="41.5" fill="none"/>
    </g>
    <g id="libro-de-contactos" transform="translate(306.396 3557.903)">
      <g id="_Path_" data-name=" Path " transform="translate(-0.001 0)">
        <path id="Trazado_162498" data-name="Trazado 162498" d="M9.438,2.474V51.627H41.849V2.474Z" transform="translate(-4.753 -2.454)" fill="#dfe8f4"/>
        <path id="Trazado_162499" data-name="Trazado 162499" d="M5.438,2.457H10.16V51.651H5.438Z" transform="translate(-5.438 -2.457)" fill="#b3d1e7"/>
      </g>
      <path id="Trazado_162500" data-name="Trazado 162500" d="M27.766,18.6h-6.7a8.089,8.089,0,0,0-4.48,7.232v5.754H32.254V25.833A8.1,8.1,0,0,0,27.766,18.6Z" transform="translate(-3.529 0.309)" fill="#74b4e8"/>
      <path id="Trazado_162501" data-name="Trazado 162501" d="M37.07,36.928h5.159v8.819H37.07Z" transform="translate(-0.02 3.448)" fill="#9fe2e0"/>
      <path id="Trazado_162502" data-name="Trazado 162502" d="M37.07,29.428h5.159v8.784H37.07Z" transform="translate(-0.02 2.163)" fill="#bad79d"/>
      <path id="Trazado_162503" data-name="Trazado 162503" d="M37.07,20.053h5.159V31.034H37.07Z" transform="translate(-0.02 0.558)" fill="#f3ce7d"/>
      <path id="Trazado_162504" data-name="Trazado 162504" d="M37.07,10.677h5.159V21.659H37.07Z" transform="translate(-0.02 -1.048)" fill="#eb7288"/>
      <path id="Trazado_162505" data-name="Trazado 162505" d="M9.438,2.474h3.22V51.627H9.438Z" transform="translate(-4.754 -2.454)" fill="#a7c2d3"/>
      <path id="Trazado_162506" data-name="Trazado 162506" d="M24.284,18.6h-3.22a8.089,8.089,0,0,0-4.48,7.232v5.754H19.8V25.833a8.089,8.089,0,0,1,4.48-7.232Z" transform="translate(-3.529 0.309)" fill="#66a7d3"/>
      <path id="Trazado_162507" data-name="Trazado 162507" d="M27.352,19.878A5,5,0,1,1,29,16.172,5,5,0,0,1,27.352,19.878Z" transform="translate(-3.115 -0.963)" fill="#ffd8b7"/>
      <path id="Trazado_162508" data-name="Trazado 162508" d="M22.223,16.172a5,5,0,0,1,3.386-4.73,5,5,0,1,0,0,9.461,5,5,0,0,1-3.387-4.731Z" transform="translate(-3.114 -0.963)" fill="#eac4a9"/>
      <g id="Grupo_111095" data-name="Grupo 111095" transform="translate(10.265 36.725)">
        <path id="Trazado_162509" data-name="Trazado 162509" d="M25.472,33.81H26.76v3.542H25.472Z" transform="translate(-12.272 -33.81)" fill="#a9b5bf"/>
        <path id="Trazado_162510" data-name="Trazado 162510" d="M22.632,33.81H23.92v3.542H22.632Z" transform="translate(-12.758 -33.81)" fill="#a9b5bf"/>
        <path id="Trazado_162511" data-name="Trazado 162511" d="M19.883,33.81h1.288v3.542H19.883Z" transform="translate(-13.229 -33.81)" fill="#a9b5bf"/>
        <path id="Trazado_162512" data-name="Trazado 162512" d="M17.043,33.81H18.33v3.542H17.043Z" transform="translate(-13.716 -33.81)" fill="#a9b5bf"/>
        <path id="Trazado_162513" data-name="Trazado 162513" d="M14.2,33.81H15.49v3.542H14.2Z" transform="translate(-14.202 -33.81)" fill="#a9b5bf"/>
        <path id="Trazado_162514" data-name="Trazado 162514" d="M28.313,33.81H29.6v3.542H28.313Z" transform="translate(-11.785 -33.81)" fill="#a9b5bf"/>
        <path id="Trazado_162515" data-name="Trazado 162515" d="M31.062,33.81h1.288v3.542H31.062Z" transform="translate(-11.314 -33.81)" fill="#a9b5bf"/>
      </g>
      <path id="Trazado_162516" data-name="Trazado 162516" d="M11.637,4.948h1.288v1.61H11.637Z" transform="translate(-4.377 -2.03)" fill="#fff"/>
      <path id="Trazado_162517" data-name="Trazado 162517" d="M11.637,7.422h1.288V22.984H11.637Z" transform="translate(-4.377 -1.606)" fill="#fff"/>
    </g>
  </g>
</svg>
