<svg xmlns="http://www.w3.org/2000/svg" width="142" height="143" viewBox="0 0 142 143">
  <g id="Grupo_114648" data-name="Grupo 114648" transform="translate(-1193.8 -849)">
    <g id="Elipse_6336" data-name="Elipse 6336" transform="translate(1193.8 849)" fill="#fff" stroke="#242ca3" stroke-width="4">
      <ellipse cx="71" cy="71.5" rx="71" ry="71.5" stroke="none"/>
      <ellipse cx="71" cy="71.5" rx="69" ry="69.5" fill="none"/>
    </g>
    <g id="empresario_1_" data-name="empresario (1)" transform="translate(1203.86 861.564)">
      <path id="Trazado_162339" data-name="Trazado 162339" d="M60,110.33A15.4,15.4,0,0,1,77.425,94.979v-1.1a8.71,8.71,0,0,0-8.71-8.71H55.165a8.71,8.71,0,0,0-8.71,8.71V114.2H60.511A15.469,15.469,0,0,1,60,110.33Z" fill="#2970cc"/>
      <circle id="Elipse_6353" data-name="Elipse 6353" cx="7.742" cy="7.742" r="7.742" transform="translate(54.197 69.682)" fill="#e69e45"/>
      <path id="Trazado_162340" data-name="Trazado 162340" d="M86.522,113.065l-.676-.374a1.082,1.082,0,0,1-.581-1.084,8.83,8.83,0,0,0,0-2.555,1.082,1.082,0,0,1,.581-1.084l.676-.374a1.086,1.086,0,0,0,.428-1.523l-1.87-3.1a1.2,1.2,0,0,0-1.595-.408l-.683.387a1.243,1.243,0,0,1-1.328-.108,10,10,0,0,0-2.183-1.212,1.148,1.148,0,0,1-.761-1.045v-.747a1.142,1.142,0,0,0-1.161-1.115H73.619a1.142,1.142,0,0,0-1.161,1.115v.747a1.148,1.148,0,0,1-.761,1.045,10,10,0,0,0-2.183,1.212,1.243,1.243,0,0,1-1.328.108l-.683-.387a1.2,1.2,0,0,0-1.595.408l-1.87,3.1a1.088,1.088,0,0,0,.426,1.523l.677.374a1.082,1.082,0,0,1,.581,1.084,8.828,8.828,0,0,0,0,2.555,1.082,1.082,0,0,1-.581,1.084l-.677.374a1.088,1.088,0,0,0-.426,1.523l1.87,3.1a1.2,1.2,0,0,0,1.595.408l.683-.387a1.239,1.239,0,0,1,1.328.108,10,10,0,0,0,2.183,1.212,1.148,1.148,0,0,1,.761,1.045v.747a1.142,1.142,0,0,0,1.161,1.115h3.74a1.142,1.142,0,0,0,1.161-1.115v-.747a1.148,1.148,0,0,1,.761-1.045,10,10,0,0,0,2.183-1.212,1.239,1.239,0,0,1,1.328-.108l.683.387a1.2,1.2,0,0,0,1.595-.408l1.87-3.1a1.086,1.086,0,0,0-.418-1.523ZM75.489,114.2a3.871,3.871,0,1,1,3.871-3.871A3.871,3.871,0,0,1,75.489,114.2Z" fill="#475666"/>
      <g id="Grupo_110872" data-name="Grupo 110872">
        <path id="Trazado_162341" data-name="Trazado 162341" d="M60,38.712h3.871V63.876H60Z" fill="#7a8899"/>
        <path id="Trazado_162342" data-name="Trazado 162342" d="M40.648,57.343h3.871V74.279H40.648Z" transform="matrix(0.6, -0.8, 0.8, 0.6, -35.615, 60.391)" fill="#7a8899"/>
        <path id="Trazado_162343" data-name="Trazado 162343" d="M72.828,63.876H89.764v3.871H72.828Z" transform="matrix(0.8, -0.6, 0.6, 0.8, -23.227, 61.961)" fill="#7a8899"/>
      </g>
      <path id="Trazado_162344" data-name="Trazado 162344" d="M5.807,31.524H30.97V58.069H5.807Z" fill="#475666"/>
      <path id="Trazado_162345" data-name="Trazado 162345" d="M30.97,31.524H29.034l1.936,3.8a1.115,1.115,0,0,1-.232.747,1.051,1.051,0,0,1-.848.434,1.08,1.08,0,0,1-1.053-.811l-.319-1.15a3.85,3.85,0,0,0-3.4-3.016H24.35a3.871,3.871,0,0,0-3.385,2.952,2.648,2.648,0,0,1-5.127.074,3.854,3.854,0,0,0-3.411-3.025h-.774a3.871,3.871,0,0,0-3.37,2.9L7.932,35.7a1.078,1.078,0,0,1-1.051.8,1.051,1.051,0,0,1-.848-.434,1.115,1.115,0,0,1-.226-.745l1.936-3.8H5.807V44.175a9.1,9.1,0,0,0,1.082.068,8.819,8.819,0,0,0,5.5-1.924,10.33,10.33,0,0,0,12,0,8.826,8.826,0,0,0,5.5,1.924,9.1,9.1,0,0,0,1.086-.068Z" fill="#35404d"/>
      <path id="Trazado_162346" data-name="Trazado 162346" d="M12.045,35.35v.021l-.372,1.355a4.961,4.961,0,1,1-9.545-2.7L5.638,27.1h25.5l3.509,6.924a4.961,4.961,0,1,1-9.547,2.7l-.371-1.355a6.523,6.523,0,0,1-12.686,0Z" fill="#5c97e6"/>
      <path id="Trazado_162347" data-name="Trazado 162347" d="M12.582,46.455H24.2V54.2H12.582Z" fill="#f2f2f2"/>
      <path id="Trazado_162348" data-name="Trazado 162348" d="M92.91,31.524h25.163V58.069H92.91Z" fill="#475666"/>
      <path id="Trazado_162349" data-name="Trazado 162349" d="M118.073,31.524h-1.936l1.936,3.8a1.115,1.115,0,0,1-.232.747,1.051,1.051,0,0,1-.848.434,1.08,1.08,0,0,1-1.053-.811l-.319-1.15a3.85,3.85,0,0,0-3.4-3.016h-.763a3.871,3.871,0,0,0-3.385,2.952,2.648,2.648,0,0,1-5.127.074,3.854,3.854,0,0,0-3.409-3.025h-.774a3.871,3.871,0,0,0-3.37,2.9l-.35,1.272a1.078,1.078,0,0,1-1.051.8,1.051,1.051,0,0,1-.848-.434,1.115,1.115,0,0,1-.232-.747l1.936-3.8H92.91V44.173a9.1,9.1,0,0,0,1.082.068,8.819,8.819,0,0,0,5.5-1.924,10.33,10.33,0,0,0,12,0,8.826,8.826,0,0,0,5.5,1.924,9.1,9.1,0,0,0,1.09-.066Z" fill="#35404d"/>
      <path id="Trazado_162350" data-name="Trazado 162350" d="M99.148,35.35v.021l-.372,1.355a4.961,4.961,0,1,1-9.545-2.7l3.51-6.923h25.5l3.509,6.924a4.961,4.961,0,1,1-9.547,2.7l-.371-1.355a6.523,6.523,0,0,1-12.686,0Z" fill="#5c97e6"/>
      <path id="Trazado_162351" data-name="Trazado 162351" d="M99.684,46.455H111.3V54.2H99.684Z" fill="#f2f2f2"/>
      <path id="Trazado_162352" data-name="Trazado 162352" d="M49.358,6.36H74.521V32.906H49.358Z" fill="#596c80"/>
      <path id="Trazado_162353" data-name="Trazado 162353" d="M74.521,6.36H72.586l1.936,3.8a1.115,1.115,0,0,1-.232.747,1.051,1.051,0,0,1-.848.434,1.08,1.08,0,0,1-1.053-.811l-.319-1.15a3.85,3.85,0,0,0-3.4-3.016H67.9a3.871,3.871,0,0,0-3.387,2.952,2.648,2.648,0,0,1-5.127.074A3.854,3.854,0,0,0,55.978,6.36H55.2a3.871,3.871,0,0,0-3.37,2.9l-.35,1.272a1.078,1.078,0,0,1-1.051.8,1.051,1.051,0,0,1-.848-.434,1.115,1.115,0,0,1-.232-.747L51.294,6.36H49.358V19.012a9.1,9.1,0,0,0,1.082.068,8.819,8.819,0,0,0,5.5-1.924,10.33,10.33,0,0,0,12,0,8.826,8.826,0,0,0,5.5,1.924,9.1,9.1,0,0,0,1.082-.068Z" fill="#475666"/>
      <path id="Trazado_162354" data-name="Trazado 162354" d="M55.6,10.187v.021l-.372,1.355a4.961,4.961,0,1,1-9.545-2.7l3.51-6.923h25.5L78.2,8.859a4.961,4.961,0,1,1-9.547,2.7L68.281,10.2a6.523,6.523,0,0,1-12.686,0Z" fill="#5c97e6"/>
      <path id="Trazado_162355" data-name="Trazado 162355" d="M56.133,21.292H67.747v7.742H56.133Z" fill="#f2f2f2"/>
    </g>
  </g>
</svg>
