<svg xmlns="http://www.w3.org/2000/svg" width="92" height="93" viewBox="0 0 92 93">
  <g id="Grupo_114632" data-name="Grupo 114632" transform="translate(-544 -755)">
    <g id="Elipse_6005" data-name="Elipse 6005" transform="translate(544 755)" fill="#fff" stroke="#242ca3" stroke-width="4">
      <ellipse cx="46" cy="46.5" rx="46" ry="46.5" stroke="none"/>
      <ellipse cx="46" cy="46.5" rx="44" ry="44.5" fill="none"/>
    </g>
    <g id="Encuesta_en_linea" data-name="Encuesta en linea" transform="translate(554.412 769.826)">
      <path id="Trazado_162244" data-name="Trazado 162244" d="M5.272,45.874c1.281-1.82,2.556-3.646,3.844-5.461a21.025,21.025,0,0,1,1.947-2.589A9.516,9.516,0,0,1,16.987,34.9c1.3-.15,2.6-.061,3.895-.1,1.048-.029,1.048-.006,1.106-1.065.294.068.25.319.27.523a4.218,4.218,0,0,1,.007.781,4.669,4.669,0,0,0,3.859,4.844,4.759,4.759,0,0,0,5.448-4.045,1.79,1.79,0,0,1,.29-1.04c1.473,0,2.947-.021,4.42,0a9.589,9.589,0,0,1,8.12,4.191q1.237,1.742,2.469,3.488a11.4,11.4,0,0,1-1.349,1.983,14.363,14.363,0,0,0-.925,1.258,3.085,3.085,0,0,1-2.756,1.4c-.1-.032-.128-.153-.221-.2.022.087.1.168.032.268a6.753,6.753,0,0,1-2.819.71c-.148-.114-.069-.236-.014-.357.2-.283.487-.491.69-.775a1.494,1.494,0,0,0-.047-1.859,1.454,1.454,0,0,0-1.844-.185,4.329,4.329,0,0,0-.793.669c-.156.146-.309.3-.456.45-2.109,2.066-4.165,4.184-6.2,6.326-.292.535-.261,1.171-.539,1.71a.272.272,0,0,1-.159.117c-.284-.05-.35-.3-.452-.506-1.364-2.849-2.674-5.723-3.975-8.6A.982.982,0,0,0,24,44.222a29.907,29.907,0,0,1-3.293-.21c-.194-.091-.364-.259-.589-.262a41.338,41.338,0,0,0-4.277.032,2.223,2.223,0,0,1-1.378.178,1.568,1.568,0,0,0-1.414.589.647.647,0,0,0-.121.237,10.137,10.137,0,0,0,.5,1.269c.077.2.21.388.1.616a.4.4,0,0,1-.342.091c-.3-.019-.263.287-.405.422-.172.164-.308.365-.583.352-1.587-.356-3.144-.821-4.722-1.214a6.241,6.241,0,0,0-1.663-.27A.629.629,0,0,1,5.272,45.874Z" transform="translate(-0.216 -2.227)" fill="#dddcfe"/>
      <path id="Trazado_162245" data-name="Trazado 162245" d="M51.564,49.624a3.436,3.436,0,0,1-3.015,3.711c-2.038.341-4.023,1-6.032,1.521-.35.09-.328.354-.328.616v4.171c0,2.889-.006,5.777.006,8.667,0,.411-.058.629-.556.628q-12.675-.025-25.349-.021a.513.513,0,0,1-.065-.006,1.185,1.185,0,0,1-.19-.866q-.008-4.45,0-8.9a1.428,1.428,0,0,1,.165-.877c.248-.2.491-.057.727.025a4.652,4.652,0,0,0,1.767.287,3.461,3.461,0,0,1,.8-.04c1.365.044,2.731.01,4.1.015,2.233.008,4.467,0,6.7,0,.865-.194,1.1-.644.757-1.4-.185-.411-.546-.789-.337-1.306a.935.935,0,0,1,.458-.146c.545-.177,1.11-.281,1.648-.476.415-.156.578-.714,1.1-.7a1.1,1.1,0,0,1,.477.516,3.968,3.968,0,0,0,4.743,1.507,3.908,3.908,0,0,0,2.134-4.911,5.421,5.421,0,0,0-.8-1.324c-.128-.177-.379-.327-.214-.612,1.571-.559,3.2-.907,4.8-1.392.807-.245,1.623-.463,2.44-.674A3.294,3.294,0,0,1,51.564,49.624Z" transform="translate(-1.012 -3.246)" fill="#dddcfe"/>
      <path id="Trazado_162246" data-name="Trazado 162246" d="M37.349,24.791c-.5.119-.445.57-.519.923a8.389,8.389,0,0,1-2.877,4.936c-.589.148-1.112.375-1.252,1.058a5.283,5.283,0,0,1-3.988,1.232,9.074,9.074,0,0,1-7.726-8.875q-.01-4.2,0-8.389a1.575,1.575,0,0,1,.143-.947c.228-.165.455-.076.683,0a31.96,31.96,0,0,0,7.34,1.72,12.052,12.052,0,0,0,7.261-1.267c.223-.127.462-.372.752-.1a14.814,14.814,0,0,1,.062,3.406,3.84,3.84,0,0,0-.069,1.3,37.162,37.162,0,0,1,.109,4.165A2.917,2.917,0,0,0,37.349,24.791Z" transform="translate(-1.378 -0.813)" fill="#feae92"/>
      <path id="Trazado_162247" data-name="Trazado 162247" d="M37.056,14.208c-2.833,1.8-5.923,1.925-9.126,1.454A34.662,34.662,0,0,1,21.55,14a2.306,2.306,0,0,0-.378-.068c-.174,0-.189-.12-.2-.247-.018-2.88,0-5.759-.01-8.638a1.733,1.733,0,0,1,.073-.512A9.318,9.318,0,0,1,26.282,3.7a13.212,13.212,0,0,1,5.734,1.758.846.846,0,0,0,.739.065c3.914-1.238,6.22,1.8,6.192,4.582-.007.714.037,1.43.058,2.146-.055.1-.036.229-.1.331C38.324,13.161,37.891,13.913,37.056,14.208Z" transform="translate(-1.377 0)" fill="#aa604b"/>
      <path id="Trazado_162248" data-name="Trazado 162248" d="M20.642,14.559l.137.131c0,3.1-.012,6.2,0,9.3a8.665,8.665,0,0,0,1.975,5.5,8.23,8.23,0,0,0,5.837,3.242,5.258,5.258,0,0,0,3.659-1.225c.367.079.462.616.163.946a1.625,1.625,0,0,1-.549.343,9.416,9.416,0,0,1-6.217.721c-.148-.033-.294-.077-.443-.108-.564-.114-.727-.01-.72.574a4.713,4.713,0,0,0,1.829,3.791,4.425,4.425,0,0,1,.622.469c.084.1.239.234-.036.3a4.844,4.844,0,0,1-4.052-4.284,8.877,8.877,0,0,0-.094-2,1.352,1.352,0,0,0-.656-1.4A8.82,8.82,0,0,1,18.839,25.2c-.041-.247-.028-.44-.375-.473a2.888,2.888,0,0,1-2.681-2.2,3.088,3.088,0,0,1,1.1-3.433,1.241,1.241,0,0,1,1-.65.732.732,0,0,0,.626-.84c-.014-.956-.01-1.911,0-2.867,0-.3-.048-.616.194-.862A2.787,2.787,0,0,1,20.642,14.559Z" transform="translate(-0.983 -0.756)" fill="#ed8678"/>
      <path id="Trazado_162249" data-name="Trazado 162249" d="M2.755,50.094a5.182,5.182,0,0,1,.891-1.2,3.543,3.543,0,0,1,3.54-.5c1.415.388,2.82.81,4.266,1.077a7,7,0,0,0,1.5.462c.579.143,1.146.334,1.727.472a5.864,5.864,0,0,1,1.346.4c.119.313-.161.368-.327.458a3.917,3.917,0,0,0-2.154,3.845.407.407,0,0,1-.121.354,1.055,1.055,0,0,1-.7-.046C10.244,54.809,7.764,54.2,5.3,53.535A3.258,3.258,0,0,1,2.755,50.094Z" transform="translate(-0.029 -3.294)" fill="#dddcfe"/>
      <path id="Trazado_162250" data-name="Trazado 162250" d="M2.726,50.249A9.449,9.449,0,0,0,3.21,51.9a3.172,3.172,0,0,0,2.025,1.594c2.713.7,5.43,1.386,8.145,2.078.212.123.234.353.312.55a3.8,3.8,0,0,0,1.392,1.913c.131.087.321.17.255.4-.19.228-.106.5-.106.75q-.017,4.967-.018,9.934c-.564,0-1.131-.023-1.692.023-.524.043-.658-.149-.655-.658.021-3.561-.007-7.122.028-10.681.006-.625-.179-.856-.782-.994C9.775,56.266,7.451,55.661,5.12,55.1A3.327,3.327,0,0,1,2.726,50.249Z" transform="translate(0 -3.449)" fill="#b4b4e9"/>
      <path id="Trazado_162251" data-name="Trazado 162251" d="M47.887,19.6c-.694,0-1.389.008-2.083,0-.982-.014-1.392-.419-1.4-1.381q-.01-1.692,0-3.383c0-.832.385-1.291,1.19-1.307,1.517-.033,3.037-.03,4.555,0,.789.015,1.187.361,1.227,1.143.063,1.254.068,2.514.021,3.769-.029.775-.5,1.142-1.3,1.158C49.362,19.607,48.624,19.6,47.887,19.6Z" transform="translate(-3.112 -0.729)" fill="#65b8fe"/>
      <path id="Trazado_162252" data-name="Trazado 162252" d="M27.593,39.887c.127-.27-.139-.255-.254-.327A4.832,4.832,0,0,1,25,35.222c0-.779.135-.879.869-.67a9.233,9.233,0,0,0,6.9-.713c.548-.276.6-.61.182-.993.057-.658.542-1,1.306-.919-1,.512-1,1.422-.942,2.354.008.128.008.258.012.386a5.153,5.153,0,0,1-2.114,4.39A4.5,4.5,0,0,1,27.593,39.887Z" transform="translate(-1.675 -2.092)" fill="#feae92"/>
      <path id="Trazado_162253" data-name="Trazado 162253" d="M47.886,10.1c-.759,0-1.518.012-2.277,0a1.073,1.073,0,0,1-1.2-1.205Q44.386,7.1,44.4,5.308a1.108,1.108,0,0,1,1.252-1.237q2.245-.019,4.489,0a1.11,1.11,0,0,1,1.254,1.185q.052,1.82,0,3.642c-.025.84-.429,1.183-1.292,1.2C49.362,10.1,48.624,10.1,47.886,10.1Z" transform="translate(-3.111 -0.03)" fill="#e73d62"/>
      <path id="Trazado_162254" data-name="Trazado 162254" d="M47.89,23.026c.759,0,1.518-.008,2.277,0,.779.011,1.192.354,1.218,1.128q.062,1.852.007,3.707a1.108,1.108,0,0,1-1.255,1.181q-2.245.017-4.489,0A1.113,1.113,0,0,1,44.405,27.8q-.019-1.756-.007-3.513c.006-.881.382-1.247,1.28-1.255C46.416,23.02,47.152,23.026,47.89,23.026Z" transform="translate(-3.111 -1.434)" fill="#46cb6b"/>
      <path id="Trazado_162255" data-name="Trazado 162255" d="M20.739,13.873l-1.827-.668a.672.672,0,0,0-.251.019c-1.183.178-1.32.081-1.553-1.085a.788.788,0,0,0-.126-.357,7.032,7.032,0,0,1,3.459-7.05,2.085,2.085,0,0,1,.3-.126c.186.145.135.353.135.541q0,4.092,0,8.182C20.871,13.52,20.924,13.727,20.739,13.873Z" transform="translate(-1.08 -0.071)" fill="#8a4f4f"/>
      <path id="Trazado_162256" data-name="Trazado 162256" d="M53.4,49.3a3.792,3.792,0,0,0-2.447-1.874,3.023,3.023,0,0,0-1.347.007q-3.5.964-7,1.932a5.293,5.293,0,0,1-.574.1,1.259,1.259,0,0,1-1.211-.72.26.26,0,0,1,.1-.153.521.521,0,0,1,.451-.055,16.148,16.148,0,0,0,2.918-.767c.03-.057.069-.061.114-.017l.065-.007c1.82-.059,2.658-1.409,3.572-2.685A10.58,10.58,0,0,1,49.5,43.182q1.665,2.282,3.331,4.561A3.063,3.063,0,0,1,53.4,49.3Z" transform="translate(-2.847 -2.926)" fill="#b4b4e9"/>
      <path id="Trazado_162257" data-name="Trazado 162257" d="M61.671,14.047c1.672,0,3.342,0,5.013,0,.717,0,1.073.262,1.067.765-.006.448-.452.781-1.1.781q-4.981.006-9.962,0a2.493,2.493,0,0,1-.452-.037.737.737,0,0,1-.7-.8c.018-.487.367-.679.786-.7.563-.034,1.128-.011,1.692-.011Z" transform="translate(-3.937 -0.769)" fill="#b5b5e9"/>
      <path id="Trazado_162258" data-name="Trazado 162258" d="M61.625,25.04c-1.67,0-3.34,0-5.01,0-.716,0-1.083-.268-1.073-.756.011-.52.359-.792,1.052-.793q5.041-.006,10.084,0c.506,0,.917.161,1.047.683.09.364-.179.6-.458.787a1.054,1.054,0,0,1-.634.083Q64.13,25.043,61.625,25.04Z" transform="translate(-3.936 -1.468)" fill="#b5b5e9"/>
      <path id="Trazado_162259" data-name="Trazado 162259" d="M61.663,6.06c-1.713,0-3.427,0-5.14,0-.5,0-.928-.084-.976-.69-.039-.48.328-.764.978-.764,3.427,0,6.853.006,10.28-.008.545,0,.945.2.945.735s-.4.739-.946.732C65.09,6.047,63.377,6.06,61.663,6.06Z" transform="translate(-3.937 -0.07)" fill="#b5b5e9"/>
      <path id="Trazado_162260" data-name="Trazado 162260" d="M40.2,13.173c.036-.079.072-.159.109-.237.008,1.86.025,3.721.018,5.581a1.384,1.384,0,0,0,.36.985,3.115,3.115,0,0,1-1.92,5.137.729.729,0,0,1-.185-.535,47.293,47.293,0,0,1,.143-5.231.782.782,0,0,1,.1-.3.509.509,0,0,1,.6-.113c.513.177.593-.091.59-.513-.007-1.276,0-2.553,0-3.829A1.663,1.663,0,0,1,40.2,13.173Z" transform="translate(-2.68 -0.687)" fill="#feae92"/>
      <path id="Trazado_162261" data-name="Trazado 162261" d="M59.892,9.975q-1.661,0-3.324,0c-.517,0-.982-.11-1.019-.742-.03-.519.349-.805,1.034-.807,2.172-.006,4.344,0,6.518,0a1.827,1.827,0,0,1,.325.01c.477.091.84.359.8.863-.033.481-.415.679-.884.679Z" transform="translate(-3.937 -0.353)" fill="#b5b5e9"/>
      <path id="Trazado_162262" data-name="Trazado 162262" d="M59.839,28.863c-1.127,0-2.254-.007-3.379,0-.5,0-.888-.171-.9-.7-.014-.572.385-.756.914-.754,2.3.007,4.593.011,6.889,0,.532,0,.876.244.872.738s-.354.734-.885.724C62.178,28.847,61.009,28.861,59.839,28.863Z" transform="translate(-3.938 -1.758)" fill="#b4b4e9"/>
      <path id="Trazado_162263" data-name="Trazado 162263" d="M59.889,17.972c1.147,0,2.3.015,3.444-.007.524-.01.883.208.9.71.017.519-.371.746-.87.747q-3.475,0-6.952,0c-.509,0-.858-.221-.854-.752,0-.557.394-.7.89-.7C57.593,17.977,58.741,17.972,59.889,17.972Z" transform="translate(-3.937 -1.059)" fill="#b4b4e9"/>
      <path id="Trazado_162264" data-name="Trazado 162264" d="M11.533,49.443c-.532.2-.994-.1-1.477-.218-1.252-.294-2.493-.639-3.744-.942a2.941,2.941,0,0,0-2.324.468c-.084.052-.156.17-.27.05a19.177,19.177,0,0,1,1.44-1.956c1.731-.109,3.3.619,4.933.979.714.157,1.414.389,2.12.588A1.135,1.135,0,0,1,11.533,49.443Z" transform="translate(-0.101 -3.196)" fill="#b4b4e9"/>
      <path id="Trazado_162265" data-name="Trazado 162265" d="M16.986,12.357c.359.137.371.477.356.754-.029.5.222.564.632.56.312,0,.652-.123.942.109-.236.356-.1.753-.109,1.13-.022.947-.039,1.9.006,2.842.022.479-.167.661-.593.716a2.931,2.931,0,0,0-1.237.517Q16.982,15.671,16.986,12.357Z" transform="translate(-1.082 -0.644)" fill="#8b4f4f"/>
      <path id="Trazado_162266" data-name="Trazado 162266" d="M38.872,18.95c-.159,2.036-.119,4.077-.135,6.115a.233.233,0,0,1-.113.028c-.349-.059-.273-.335-.274-.56-.006-.906.014-1.814-.007-2.72-.018-.794-.086-1.587-.116-2.38-.008-.205-.076-.437.124-.607C38.564,18.7,38.77,18.609,38.872,18.95Z" transform="translate(-2.653 -1.115)" fill="#ed8778"/>
      <path id="Trazado_162267" data-name="Trazado 162267" d="M16.8,50.729l-1.382-.361A7.2,7.2,0,0,1,14.1,47.524q-.4-.976-.8-1.953c.476-.3,1.01-.142,1.516-.192.618-.034,1.233.032,1.849.046,1.64-.146,3.27.175,4.908.087a2.745,2.745,0,0,1,.7.047,5.471,5.471,0,0,0,1.462.09,1.429,1.429,0,0,1,.862.166A16.472,16.472,0,0,1,25.99,48.6q2,4.295,3.993,8.6c.2.43.554.833.383,1.374l-10.912.023a.308.308,0,0,1-.288-.108c.059-.222.261-.273.433-.359a3.86,3.86,0,0,0-.666-7.366,4.6,4.6,0,0,0-1.449,0A1.092,1.092,0,0,1,16.8,50.729Z" transform="translate(-0.81 -3.088)" fill="#3e7ffe"/>
      <path id="Trazado_162268" data-name="Trazado 162268" d="M31,58.519c-.651-1.739-1.529-3.376-2.288-5.068-1.128-2.518-2.374-4.984-3.437-7.533-.138-.281-.4-.19-.625-.2a10.448,10.448,0,0,1-1.725-.062l-.674-.01a.679.679,0,0,1-.261-.877c1.236-.1,2.465.163,3.7.092.327-.018.455.174.571.425q1.655,3.6,3.32,7.2c.364.782.759,1.55,1.139,2.325a1.116,1.116,0,0,1,.414.939c.139.338.265.683.421,1.012C32.04,57.776,32.015,57.868,31,58.519Z" transform="translate(-1.448 -3.041)" fill="#65b8fe"/>
      <path id="Trazado_162269" data-name="Trazado 162269" d="M40.387,48.9l-.131.055c-.259.325-.6.177-.9.131a3.441,3.441,0,0,0-2.422.481,3.789,3.789,0,0,0-1.866,4.27c.046.225.153.466-.046.68-.33.226-.512.619-.9.781a8.784,8.784,0,0,1-2.1-2.008.227.227,0,0,1,0-.3q2.9-2.919,5.8-5.837c.149-.15.321-.279.483-.417A6.915,6.915,0,0,1,40.387,48.9Z" transform="translate(-2.191 -3.189)" fill="#e73d62"/>
      <path id="Trazado_162270" data-name="Trazado 162270" d="M39.265,46.169a2.58,2.58,0,0,1,1.183-.963,1.587,1.587,0,0,1,1.74.532,1.627,1.627,0,0,1,.084,1.816,2.734,2.734,0,0,1-.811.819c-.688-.228-1.027-.865-1.523-1.316C39.667,46.812,39.292,46.612,39.265,46.169Z" transform="translate(-2.732 -3.07)" fill="#5b5e8b"/>
      <path id="Trazado_162271" data-name="Trazado 162271" d="M21.6,44.728l.261.877c-1.685.072-3.365-.135-5.05-.117a.837.837,0,0,1-.2-1.011c-.006-.266.172-.236.353-.232,1.31.032,2.62.069,3.932.074A.661.661,0,0,1,21.6,44.728Z" transform="translate(-1.048 -3.004)" fill="#5b5e8b"/>
      <path id="Trazado_162272" data-name="Trazado 162272" d="M31.979,53.488a9.819,9.819,0,0,0,1.542,1.694c.181.21.375.408.564.611l-1.718.5a2.7,2.7,0,0,1-.881-1A9.4,9.4,0,0,1,31.979,53.488Z" transform="translate(-2.156 -3.689)" fill="#fdae93"/>
      <path id="Trazado_162273" data-name="Trazado 162273" d="M14.117,47.695q.658,1.421,1.317,2.844-.869-.25-1.739-.5a3.021,3.021,0,0,1,.019-2.34Z" transform="translate(-0.822 -3.26)" fill="#b4b4e9"/>
      <path id="Trazado_162274" data-name="Trazado 162274" d="M16.372,44.5c.068.337.137.674.2,1.011l-1.709-.014c-.473-.166-.979.055-1.451-.126a1.542,1.542,0,0,1,1.62-.787A2.327,2.327,0,0,0,16.372,44.5Z" transform="translate(-0.818 -3.023)" fill="#66b9fe"/>
      <path id="Trazado_162275" data-name="Trazado 162275" d="M39.23,46.253l2.2,2.205c-.066.1-.131.2-.2.3l-.337.1L38.8,46.7A.9.9,0,0,1,39.23,46.253Z" transform="translate(-2.697 -3.153)" fill="#fab542"/>
      <path id="Trazado_162276" data-name="Trazado 162276" d="M31.483,55.439c.328.3.749.521.881,1l-.523.1a2.192,2.192,0,0,1-.414-.939C31.445,55.544,31.463,55.492,31.483,55.439Z" transform="translate(-2.152 -3.833)" fill="#393551"/>
      <path id="Trazado_162277" data-name="Trazado 162277" d="M13.408,45.436c.481.073.987-.138,1.451.126l-1.552.012C13.342,45.528,13.375,45.481,13.408,45.436Z" transform="translate(-0.81 -3.092)" fill="#76bcfe"/>
      <path id="Trazado_162278" data-name="Trazado 162278" d="M35.244,54.715a4.61,4.61,0,0,1,.157-3.331,3.944,3.944,0,0,1,1.659-1.749A3.927,3.927,0,0,1,41.9,52.664a4.227,4.227,0,0,1-.993,3.754c-.11.131-.265.228-.317.405a4.084,4.084,0,0,1-4.679-1.158C35.68,55.355,35.466,55.032,35.244,54.715Z" transform="translate(-2.417 -3.391)" fill="#feae92"/>
      <path id="Trazado_162279" data-name="Trazado 162279" d="M19.229,51.061a3.937,3.937,0,0,1,3.125,3.258,4.039,4.039,0,0,1-2.209,4.262c-.252.123-.52.214-.781.32-.222-.012-.417.172-.648.1-.132-.193-.365-.223-.549-.331a4.081,4.081,0,0,1-2.205-3.8,4,4,0,0,1,2.281-3.611A1.383,1.383,0,0,1,19.229,51.061Z" transform="translate(-1.007 -3.507)" fill="#feae92"/>
      <path id="Trazado_162280" data-name="Trazado 162280" d="M19.1,51.052a4.024,4.024,0,0,0-.6,7.649c.19.087.33.108.087.288a3.985,3.985,0,0,1-4.331-3.369,4.071,4.071,0,0,1,2.615-4.481A3.653,3.653,0,0,1,19.1,51.052Z" transform="translate(-0.878 -3.498)" fill="#ed8778"/>
      <path id="Trazado_162281" data-name="Trazado 162281" d="M40.753,56.791c-.4-.175-.015-.3.054-.365a3.759,3.759,0,0,0,1.207-2.848,3.979,3.979,0,0,0-3.2-3.96,3.57,3.57,0,0,0-1.593-.015,3.614,3.614,0,0,1,2.866-.48,1.014,1.014,0,0,0,.556,0c.232.466.76.5,1.124.775a4.28,4.28,0,0,1,1.458,3.2A3.888,3.888,0,0,1,40.753,56.791Z" transform="translate(-2.581 -3.359)" fill="#ed8778"/>
      <path id="Trazado_162282" data-name="Trazado 162282" d="M28.466,27.841c.76,0,1.52.006,2.28,0,.35,0,.474.094.327.465a3.039,3.039,0,0,1-2.459,1.76A2.923,2.923,0,0,1,25.9,28.489c-.308-.568-.237-.645.415-.648C27.033,27.838,27.751,27.841,28.466,27.841Z" transform="translate(-1.729 -1.79)" fill="#ed8778"/>
      <path id="Trazado_162283" data-name="Trazado 162283" d="M38.882,18.541c-.142-.175-.342-.1-.521-.124q-.01-1.752-.019-3.5l1.84-1.723c.007,1.758,0,3.517.026,5.274.007.48-.149.51-.521.3A1.5,1.5,0,0,0,38.882,18.541Z" transform="translate(-2.663 -0.706)" fill="#8b5050"/>
      <path id="Trazado_162284" data-name="Trazado 162284" d="M33.233,19.934c-.477,0-.953-.007-1.43,0-.367.007-.4-.148-.254-.44a1.837,1.837,0,0,1,3.292.015c.138.27.149.444-.244.428C34.143,19.92,33.688,19.935,33.233,19.934Z" transform="translate(-2.154 -1.098)" fill="#35314c"/>
      <path id="Trazado_162285" data-name="Trazado 162285" d="M23.806,19.934c-.432,0-.863-.011-1.294,0-.352.012-.485-.08-.313-.443a1.871,1.871,0,0,1,1.681-1.016A1.8,1.8,0,0,1,25.491,19.5c.149.288.1.447-.262.44C24.755,19.928,24.28,19.934,23.806,19.934Z" transform="translate(-1.463 -1.097)" fill="#35314c"/>
      <path id="Trazado_162286" data-name="Trazado 162286" d="M27.942,24c0-.217-.006-.433,0-.65a.667.667,0,0,1,.616-.71.694.694,0,0,1,.862.506,3.4,3.4,0,0,1,.019,1.667.7.7,0,0,1-.888.556.691.691,0,0,1-.612-.783C27.942,24.388,27.941,24.193,27.942,24Z" transform="translate(-1.893 -1.404)" fill="#ed8778"/>
      <path id="Trazado_162287" data-name="Trazado 162287" d="M18.97,24.562V20.953h.065V24.57Z" transform="translate(-1.229 -1.28)" fill="#f09486"/>
      <path id="Trazado_162288" data-name="Trazado 162288" d="M49.746,15.72a.644.644,0,0,1-.244.57c-.52.521-1.044,1.038-1.56,1.564a.642.642,0,0,1-1.058-.017c-.207-.221-.433-.426-.621-.662a.5.5,0,0,1,.069-.747.445.445,0,0,1,.73.018c.309.388.52.207.77-.062.309-.332.639-.647.967-.963a.548.548,0,0,1,.659-.1A.512.512,0,0,1,49.746,15.72Z" transform="translate(-3.239 -0.858)" fill="#dddcfe"/>
      <path id="Trazado_162289" data-name="Trazado 162289" d="M49.758,6.545a.642.642,0,0,1-.236.45c-.534.536-1.073,1.07-1.6,1.609a.594.594,0,0,1-.956.019c-.23-.229-.468-.452-.683-.694a.5.5,0,0,1,.014-.754.486.486,0,0,1,.75-.039c.335.378.546.245.814-.062.284-.325.607-.616.916-.92a.569.569,0,0,1,.659-.121A.529.529,0,0,1,49.758,6.545Z" transform="translate(-3.239 -0.172)" fill="#dddbfd"/>
      <path id="Trazado_162290" data-name="Trazado 162290" d="M46.864,27.742c-.422-.032-.554-.287-.468-.668a.566.566,0,0,1,.222-.306c.616-.423.632-.815,0-1.255a.524.524,0,0,1-.11-.843c.291-.321.582-.164.845.074a1.156,1.156,0,0,1,.186.181c.334.491.648.434.989,0a1.919,1.919,0,0,1,.451-.365.413.413,0,0,1,.535.076.45.45,0,0,1,.153.576.668.668,0,0,1-.182.261c-.666.45-.688.866,0,1.335a.483.483,0,0,1,.074.789.535.535,0,0,1-.807-.036.2.2,0,0,1-.046-.046c-.474-.7-.93-.581-1.387.022A.508.508,0,0,1,46.864,27.742Z" transform="translate(-3.256 -1.542)" fill="#dddcfd"/>
      <path id="Trazado_162291" data-name="Trazado 162291" d="M23.009,45.725c.621,0,1.241,0,1.862,0,.207,0,.452-.054.488.266-.458-.255-.956-.084-1.433-.142C23.622,45.812,23.291,45.953,23.009,45.725Z" transform="translate(-1.528 -3.114)" fill="#76aefe"/>
    </g>
  </g>
</svg>
