<svg xmlns="http://www.w3.org/2000/svg" xmlns:xlink="http://www.w3.org/1999/xlink" width="100" height="100" viewBox="0 0 100 100">
  <defs>
    <filter id="Rect치ngulo_41489" x="0" y="0" width="100" height="100" filterUnits="userSpaceOnUse">
      <feOffset dy="3" input="SourceAlpha"/>
      <feGaussianBlur stdDeviation="3" result="blur"/>
      <feFlood flood-opacity="0.161"/>
      <feComposite operator="in" in2="blur"/>
      <feComposite in="SourceGraphic"/>
    </filter>
  </defs>
  <g id="Grupo_114629" data-name="Grupo 114629" transform="translate(-944.333 -259)">
    <g transform="matrix(1, 0, 0, 1, 944.33, 259)" filter="url(#Rect치ngulo_41489)">
      <rect id="Rect치ngulo_41489-2" data-name="Rect치ngulo 41489" width="82" height="82" rx="23" transform="translate(9 6)" fill="#fff"/>
    </g>
    <g id="Grupo_110866" data-name="Grupo 110866">
      <g id="Grupo_110866-2" data-name="Grupo 110866" transform="translate(814.266 105.923)">
        <path id="Trazado_162204" data-name="Trazado 162204" d="M183.72,405.008c-2.642,0-5.288.092-7.926-.013-2.355-.094-4.708-.005-7.06-.082a1.322,1.322,0,0,0-.969.48q-1.756,1.607-3.473,3.256a7.362,7.362,0,0,1-1.6,1.319h-9.435a2.113,2.113,0,0,1-1.195-2.271c.04-3.579.025-7.159.008-10.738a1.94,1.94,0,0,1,1.118-1.845c2.4-1.361,4.787-2.761,7.179-4.144,2.453-1.419,4.889-2.87,7.369-4.241a13.123,13.123,0,0,1,4.52-1.375,19.065,19.065,0,0,1,5.978.468c1.889.318,3.765.714,5.667.962.047.006.088.055.133.084a2.384,2.384,0,0,0-.16,1q.005,3.108,0,6.216a3.142,3.142,0,0,1-.049.8.465.465,0,0,1-.091.165,3.07,3.07,0,0,1-1.371-.12c-1.846-.333-3.7-.634-5.543-.969a1.471,1.471,0,0,0-1.83,1.133,1.5,1.5,0,0,0,1.325,1.707c2.089.392,4.184.752,6.28,1.109a2.687,2.687,0,0,1,1.126.316.483.483,0,0,1,.1.169,10.3,10.3,0,0,1,.054,1.808c.01,1.35.007,2.7,0,4.05A1.032,1.032,0,0,1,183.72,405.008Z" transform="translate(0 -180.891)" fill="#fee3c0"/>
        <path id="Trazado_162205" data-name="Trazado 162205" d="M371.612,180.494a8.1,8.1,0,0,1,1.521-.871,1.567,1.567,0,0,1,1.889.436c1.312,1.315,2.632,2.621,3.93,3.95a.5.5,0,0,0,.792.073c2.9-2.037,5.826-4.05,8.742-6.071.1-.069.193-.146.372-.283-.8-.151-1.508-.287-2.216-.418a1.637,1.637,0,0,1-1.5-1.361,1.6,1.6,0,0,1,1.1-1.8.377.377,0,0,0,.079-.07h.965a22.644,22.644,0,0,0,2.744.535c1.082.212,2.176.365,3.258.577a1.676,1.676,0,0,1,1.368,2.07q-.53,3-1.058,6a1.7,1.7,0,0,1-1.818,1.519,1.637,1.637,0,0,1-1.387-2.032c.111-.756.249-1.508.392-2.364-1.052.726-2.029,1.4-3,2.072q-3.715,2.578-7.429,5.159a1.718,1.718,0,0,1-2.6-.232c-1.314-1.314-2.635-2.623-3.933-3.953a.486.486,0,0,0-.721-.1c-.438.271-.9.5-1.358.741-.224-.011-.248-.2-.254-.345a28.677,28.677,0,0,1,0-2.94A.708.708,0,0,1,371.612,180.494Z" transform="translate(-187.917)" fill="#453d80"/>
        <path id="Trazado_162206" data-name="Trazado 162206" d="M372.707,417.65q-.005-3.374-.01-6.748c.278-.162.559-.038.83.011.755.136,1.515.242,2.266.39a5.845,5.845,0,0,0,2.6-.143,7.035,7.035,0,0,0,5.422-6.636.862.862,0,0,1,.144-.61c1.955-1.14,3.887-2.322,5.871-3.408a4.008,4.008,0,0,1,5.423,1.556,4.049,4.049,0,0,1-1.522,5.493q-6.285,3.662-12.592,7.285a21.644,21.644,0,0,1-4.485,2.245A12.213,12.213,0,0,1,372.707,417.65Z" transform="translate(-188.987 -193.533)" fill="#fccfa1"/>
        <path id="Trazado_162207" data-name="Trazado 162207" d="M260.641,218.823c.005,1.01.007,2.019.019,3.029,0,.186-.07.395.107.55q-8.162,4.547-16.324,9.092a1.649,1.649,0,0,1-1.993-.112,1.574,1.574,0,0,1-.432-1.806,1.616,1.616,0,0,1,.734-.826q8.893-4.949,17.789-9.894A.528.528,0,0,1,260.641,218.823Z" transform="translate(-76.946 -38.329)" fill="#6354b1"/>
        <path id="Trazado_162208" data-name="Trazado 162208" d="M372.671,404.664q0-3.822,0-7.644c0-.234-.087-.538.325-.52,1.186.2,2.371.406,3.558.6a5.72,5.72,0,0,1,2.266.707,4.019,4.019,0,0,1,1.715,4.646c-.035.123-.155.252-.039.4a3.079,3.079,0,0,1-1.254,1.666,4.159,4.159,0,0,1-3.206.854c-.949-.145-1.893-.321-2.839-.484A.808.808,0,0,1,372.671,404.664Z" transform="translate(-188.963 -190.523)" fill="#fcd0a2"/>
        <path id="Trazado_162209" data-name="Trazado 162209" d="M499.266,271c0,1.716,0,3.432,0,5.149a1.614,1.614,0,1,1-3.214.024q0-5.229,0-10.458a1.612,1.612,0,1,1,3.213-.024C499.27,267.463,499.266,269.233,499.266,271Z" transform="translate(-294.648 -76.998)" fill="#6ba6fe"/>
        <path id="Trazado_162210" data-name="Trazado 162210" d="M371.649,430.973c1.176.131,2.326.42,3.5.563a4.164,4.164,0,0,0,3.271-1.053,14.676,14.676,0,0,0,1.055-1.326c1.144-.647,2.239-1.382,3.431-1.945a7.053,7.053,0,0,1-2.136,5.507,7.376,7.376,0,0,1-4.244,2.038,14.032,14.032,0,0,1-3.993-.391c-.3-.038-.591-.11-.886-.167h0a.607.607,0,0,1-.155-.389q-.041-1.226,0-2.453a.5.5,0,0,1,.154-.385Z" transform="translate(-187.941 -216.831)" fill="#fdc492"/>
        <path id="Trazado_162211" data-name="Trazado 162211" d="M454.408,284.835c0,1.394,0,2.788,0,4.182a1.612,1.612,0,1,1-3.213.012q-.006-4.182,0-8.365a1.609,1.609,0,1,1,3.213-.012C454.414,282.047,454.408,283.441,454.408,284.835Z" transform="translate(-256.223 -89.83)" fill="#6ba6fe"/>
        <path id="Trazado_162212" data-name="Trazado 162212" d="M319.848,298.727c0,1.036,0,2.073,0,3.109a1.614,1.614,0,1,1-3.214-.015q-.006-3.056,0-6.111a1.617,1.617,0,1,1,3.215.015C319.851,296.726,319.848,297.727,319.848,298.727Z" transform="translate(-140.961 -102.662)" fill="#fe3f5c"/>
        <path id="Trazado_162213" data-name="Trazado 162213" d="M409.548,298.762c0,1.036.005,2.073,0,3.109a1.61,1.61,0,1,1-3.213.021q-.01-3.136,0-6.271a1.608,1.608,0,1,1,3.212-.021C409.555,296.654,409.548,297.708,409.548,298.762Z" transform="translate(-217.796 -102.662)" fill="#6ba6fe"/>
        <path id="Trazado_162214" data-name="Trazado 162214" d="M371.663,271.576a1.532,1.532,0,0,1,1.6,1.556q.012,4.871,0,9.741a1.531,1.531,0,0,1-1.6,1.556.913.913,0,0,1-.173-.709q-.007-5.718,0-11.436A.913.913,0,0,1,371.663,271.576Z" transform="translate(-187.95 -83.516)" fill="#cf1273"/>
        <path id="Trazado_162215" data-name="Trazado 162215" d="M363.088,271.576q0,6.427,0,12.853a1.571,1.571,0,0,1-1.606-1.634q-.014-4.793,0-9.586A1.57,1.57,0,0,1,363.088,271.576Z" transform="translate(-179.375 -83.516)" fill="#fe3f5c"/>
        <path id="Trazado_162216" data-name="Trazado 162216" d="M271.766,319.631c0-.536-.01-1.072,0-1.607a1.6,1.6,0,1,1,3.209,0c.016,1.071.018,2.143,0,3.214a1.6,1.6,0,0,1-3.207,0C271.754,320.7,271.766,320.166,271.766,319.631Z" transform="translate(-102.528 -121.909)" fill="#fe3f5c"/>
        <path id="Trazado_162217" data-name="Trazado 162217" d="M319.48,445.842q0,1.614,0,3.228c-2.5-.435-4.993-.864-7.487-1.308a1.685,1.685,0,0,1-1.395-1.909,1.649,1.649,0,0,1,2.034-1.245c2.178.4,4.363.758,6.545,1.136A2.2,2.2,0,0,1,319.48,445.842Z" transform="translate(-135.771 -231.701)" fill="#fcd0a2"/>
      </g>
    </g>
  </g>
</svg>
