<svg xmlns="http://www.w3.org/2000/svg" width="85" height="85" viewBox="0 0 85 85">
  <g id="Grupo_114635" data-name="Grupo 114635" transform="translate(-285 -3255)">
    <g id="Elipse_6346" data-name="Elipse 6346" transform="translate(285 3255)" fill="#fff" stroke="#242ca3" stroke-width="2">
      <circle cx="42.5" cy="42.5" r="42.5" stroke="none"/>
      <circle cx="42.5" cy="42.5" r="41.5" fill="none"/>
    </g>
    <g id="flat" transform="translate(301.449 3269.615)">
      <path id="Trazado_162478" data-name="Trazado 162478" d="M46.633,17.448l-1.8,3.593H5.31V51.584H53.82V17.448Z" transform="translate(-1.717 0.518)" fill="#fbb540"/>
      <path id="Trazado_162479" data-name="Trazado 162479" d="M2.276,20.483H9.462v26.95a3.593,3.593,0,0,1-7.187,0Z" transform="translate(-2.276 1.077)" fill="#ea9d2d"/>
      <path id="Trazado_162480" data-name="Trazado 162480" d="M6.348,35.795V48.258a3.614,3.614,0,0,1-1.8,0V35.795a.9.9,0,0,1,1.8,0Z" transform="translate(-1.857 3.731)" fill="#ea9d2d"/>
      <path id="Trazado_162481" data-name="Trazado 162481" d="M11.379,2.276H41.922V40.005H11.379Z" transform="translate(-0.599 -2.276)" fill="#eaeae8"/>
      <path id="Trazado_162482" data-name="Trazado 162482" d="M8.345,6.069h3.593V23.137H8.345Z" transform="translate(-1.158 -1.577)" fill="#cbcbcb"/>
      <circle id="Elipse_6358" data-name="Elipse 6358" cx="7.187" cy="7.187" r="7.187" transform="translate(18.865 4.492)" fill="#8feaff"/>
      <path id="Trazado_162483" data-name="Trazado 162483" d="M29.466,17.248v.221a7.191,7.191,0,0,1-8.983,0v-.221A3.739,3.739,0,0,1,23.039,13.7l.138-.046h3.593l.138.046a3.739,3.739,0,0,1,2.557,3.547Z" transform="translate(1.077 -0.18)" fill="#fbb540"/>
      <path id="Trazado_162484" data-name="Trazado 162484" d="M29.466,17.248v.221a7.191,7.191,0,0,1-8.983,0v-.221A3.739,3.739,0,0,1,23.039,13.7l.138-.046h3.593l.138.046a3.739,3.739,0,0,1,2.557,3.547Z" transform="translate(1.077 -0.18)" fill="#0bafea"/>
      <path id="Trazado_162485" data-name="Trazado 162485" d="M27.09,13.91a2.695,2.695,0,0,1-4.871,0,3.729,3.729,0,0,1,.5-.209l.138-.046h3.593l.138.046a3.73,3.73,0,0,1,.5.209Z" transform="translate(1.397 -0.18)" fill="#0bafea"/>
      <path id="Trazado_162486" data-name="Trazado 162486" d="M27.09,13.91a2.695,2.695,0,0,1-4.871,0,3.729,3.729,0,0,1,.5-.209l.138-.046h3.593l.138.046a3.73,3.73,0,0,1,.5.209Z" transform="translate(1.397 -0.18)" fill="#0a9acd"/>
      <g id="Grupo_111094" data-name="Grupo 111094" transform="translate(19.763 21.56)">
        <path id="Trazado_162487" data-name="Trazado 162487" d="M28.568,22.279H21.381a.9.9,0,0,1,0-1.8h7.187a.9.9,0,1,1,0,1.8Z" transform="translate(-18.686 -20.483)" fill="#cbcbcb"/>
        <path id="Trazado_162488" data-name="Trazado 162488" d="M30.644,25.314H19.864a.9.9,0,0,1,0-1.8h10.78a.9.9,0,0,1,0,1.8Z" transform="translate(-18.966 -19.924)" fill="#cbcbcb"/>
        <path id="Trazado_162489" data-name="Trazado 162489" d="M33.6,29.107h-5.39a.9.9,0,0,1,0-1.8H33.6a.9.9,0,1,1,0,1.8Z" transform="translate(-17.429 -19.225)" fill="#cbcbcb"/>
        <path id="Trazado_162490" data-name="Trazado 162490" d="M25.454,32.141h-1.8a.9.9,0,0,1,0-1.8h1.8a.9.9,0,1,1,0,1.8Z" transform="translate(-18.267 -18.667)" fill="#cbcbcb"/>
      </g>
      <path id="Trazado_162491" data-name="Trazado 162491" d="M6.348,35.795V48.258a3.614,3.614,0,0,1-1.8,0V35.795a.9.9,0,0,1,1.8,0Z" transform="translate(-1.857 3.731)" fill="#d18d28"/>
      <path id="Trazado_162492" data-name="Trazado 162492" d="M5.45,33.938a.9.9,0,0,1-.9-.9v-1.8a.9.9,0,0,1,1.8,0v1.8A.9.9,0,0,1,5.45,33.938Z" transform="translate(-1.857 2.893)" fill="#d18d28"/>
      <path id="Trazado_162493" data-name="Trazado 162493" d="M5.45,29.666a.9.9,0,0,1-.9-.9V25.174a.9.9,0,0,1,1.8,0v3.593A.9.9,0,0,1,5.45,29.666Z" transform="translate(-1.857 1.775)" fill="#d18d28"/>
      <path id="Trazado_162494" data-name="Trazado 162494" d="M5.31,8.345H8.9V22.718H5.31Z" transform="translate(-1.717 -1.158)" fill="#a8a8a8"/>
      <path id="Trazado_162495" data-name="Trazado 162495" d="M35.655,38.69h8.983v5.39H35.655Z" transform="translate(3.871 4.43)" fill="#ea9d2d"/>
      <path id="Trazado_162496" data-name="Trazado 162496" d="M16.769,41.245H12.278a.9.9,0,1,1,0-1.8h4.492a.9.9,0,1,1,0,1.8Z" transform="translate(-0.599 4.569)" fill="#ea9d2d"/>
      <path id="Trazado_162497" data-name="Trazado 162497" d="M18.566,44.279H12.278a.9.9,0,0,1,0-1.8h6.288a.9.9,0,0,1,0,1.8Z" transform="translate(-0.599 5.128)" fill="#ea9d2d"/>
      <circle id="Elipse_6359" data-name="Elipse 6359" cx="2.695" cy="2.695" r="2.695" transform="translate(23.356 8.983)" fill="#0bafea"/>
    </g>
  </g>
</svg>
