<svg xmlns="http://www.w3.org/2000/svg" width="85" height="85" viewBox="0 0 85 85">
  <g id="Grupo_114636" data-name="Grupo 114636" transform="translate(-810 -3255)">
    <g id="Grupo_110862" data-name="Grupo 110862" transform="translate(810 3255)">
      <g id="Elipse_6346" data-name="Elipse 6346" fill="#fff" stroke="#242ca3" stroke-width="2">
        <circle cx="42.5" cy="42.5" r="42.5" stroke="none"/>
        <circle cx="42.5" cy="42.5" r="41.5" fill="none"/>
      </g>
    </g>
    <g id="documentos_1_" data-name="documentos (1)" transform="translate(825.405 3270.995)">
      <path id="Trazado_162332" data-name="Trazado 162332" d="M47.8,0H14.383a1.657,1.657,0,0,0-1.657,1.657V5.8h29a1.657,1.657,0,0,1,1.657,1.657v37.01H47.8a1.657,1.657,0,0,0,1.657-1.657V1.657A1.657,1.657,0,0,0,47.8,0Z" transform="translate(-0.937 0)" fill="#cbcbcb"/>
      <path id="Trazado_162333" data-name="Trazado 162333" d="M46.092,0h-15.6a29.172,29.172,0,0,0-9.77,5.8h19.3a1.657,1.657,0,0,1,1.657,1.657v37.01h4.419a1.657,1.657,0,0,0,1.657-1.657V1.657A1.657,1.657,0,0,0,46.092,0Z" transform="translate(0.774 0)" fill="#fff"/>
      <path id="Trazado_162334" data-name="Trazado 162334" d="M42.89,4.685H9.47A1.657,1.657,0,0,0,7.813,6.342v4.143H36.952a1.657,1.657,0,0,1,1.657,1.657V49.153H42.89A1.657,1.657,0,0,0,44.547,47.5V6.342A1.657,1.657,0,0,0,42.89,4.685Z" transform="translate(-1.988 1.002)" fill="#cbcbcb"/>
      <path id="Trazado_162335" data-name="Trazado 162335" d="M40.992,4.685H21.71a29.346,29.346,0,0,0-5.027,5.8H35.054a1.657,1.657,0,0,1,1.657,1.657V49.153h4.281A1.657,1.657,0,0,0,42.65,47.5V6.342A1.657,1.657,0,0,0,40.992,4.685Z" transform="translate(-0.09 1.002)" fill="#eaeae8"/>
      <path id="Trazado_162336" data-name="Trazado 162336" d="M38.092,9.37H4.672a1.657,1.657,0,0,0-1.657,1.657V40.752L16.1,53.838H38.092a1.657,1.657,0,0,0,1.657-1.657V11.027A1.657,1.657,0,0,0,38.092,9.37Z" transform="translate(-3.014 2.005)" fill="#cbcbcb"/>
      <path id="Trazado_162337" data-name="Trazado 162337" d="M36.015,9.37H17.6A29.217,29.217,0,0,0,34.782,53.838h1.234a1.657,1.657,0,0,0,1.657-1.657V11.027A1.657,1.657,0,0,0,36.015,9.37Z" transform="translate(-0.938 2.005)" fill="#fff"/>
      <path id="Trazado_162338" data-name="Trazado 162338" d="M16.1,48.306V36.878a1.657,1.657,0,0,0-1.657-1.657H3.015Z" transform="translate(-3.014 7.536)" fill="#a8a8a8"/>
    </g>
  </g>
</svg>
