<svg xmlns="http://www.w3.org/2000/svg" width="85" height="85" viewBox="0 0 85 85">
  <g id="Grupo_114642" data-name="Grupo 114642" transform="translate(-285 -3681)">
    <g id="Elipse_6348" data-name="Elipse 6348" transform="translate(285 3681)" fill="#fff" stroke="#242ca3" stroke-width="2">
      <circle cx="42.5" cy="42.5" r="42.5" stroke="none"/>
      <circle cx="42.5" cy="42.5" r="41.5" fill="none"/>
    </g>
    <g id="documentos_1_" data-name="documentos (1)" transform="translate(298.176 3695.846)">
      <path id="Trazado_162325" data-name="Trazado 162325" d="M51.027,0H14.535a1.81,1.81,0,0,0-1.809,1.809V6.333H44.392a1.81,1.81,0,0,1,1.81,1.81V48.555h4.825a1.81,1.81,0,0,0,1.809-1.809V1.809A1.81,1.81,0,0,0,51.027,0Z" transform="translate(0.146 0)" fill="#febf10"/>
      <path id="Trazado_162326" data-name="Trazado 162326" d="M48.425,0H31.386A31.853,31.853,0,0,0,20.719,6.333H41.79a1.81,1.81,0,0,1,1.81,1.81V48.555h4.825a1.81,1.81,0,0,0,1.809-1.809V1.809A1.81,1.81,0,0,0,48.425,0Z" transform="translate(2.749 0)" fill="#f9e424"/>
      <path id="Trazado_162327" data-name="Trazado 162327" d="M46.114,4.685H9.623a1.81,1.81,0,0,0-1.809,1.81v4.524H39.63a1.81,1.81,0,0,1,1.81,1.809V53.24h4.674a1.81,1.81,0,0,0,1.81-1.81V6.495A1.81,1.81,0,0,0,46.114,4.685Z" transform="translate(-1.453 1.525)" fill="#f7ac16"/>
      <path id="Trazado_162328" data-name="Trazado 162328" d="M43.227,4.685H22.172a32.044,32.044,0,0,0-5.489,6.333H36.743a1.81,1.81,0,0,1,1.81,1.809V53.24h4.674a1.81,1.81,0,0,0,1.81-1.81V6.495A1.81,1.81,0,0,0,43.227,4.685Z" transform="translate(1.434 1.525)" fill="#f4ca19"/>
      <path id="Trazado_162329" data-name="Trazado 162329" d="M41.316,9.37H4.824a1.81,1.81,0,0,0-1.809,1.809V43.637L17.3,57.925H41.316a1.81,1.81,0,0,0,1.81-1.809V11.179A1.81,1.81,0,0,0,41.316,9.37Z" transform="translate(-3.015 3.05)" fill="#febf10"/>
      <path id="Trazado_162330" data-name="Trazado 162330" d="M38.157,9.37h-20.1A31.9,31.9,0,0,0,36.81,57.925h1.347a1.81,1.81,0,0,0,1.81-1.809V11.179A1.81,1.81,0,0,0,38.157,9.37Z" transform="translate(0.144 3.05)" fill="#f9e424"/>
      <path id="Trazado_162331" data-name="Trazado 162331" d="M17.3,49.509V37.031a1.81,1.81,0,0,0-1.809-1.81H3.015Z" transform="translate(-3.015 11.466)" fill="#febf10"/>
    </g>
  </g>
</svg>
