<svg xmlns="http://www.w3.org/2000/svg" width="142" height="143" viewBox="0 0 142 143">
  <g id="Grupo_114646" data-name="Grupo 114646" transform="translate(-724.507 -849)">
    <g id="Elipse_6039" data-name="Elipse 6039" transform="translate(724.507 849)" fill="#fff" stroke="#242ca3" stroke-width="4">
      <ellipse cx="71" cy="71.5" rx="71" ry="71.5" stroke="none"/>
      <ellipse cx="71" cy="71.5" rx="69" ry="69.5" fill="none"/>
    </g>
    <g id="Page-1" transform="translate(743.549 869.774)">
      <g id="_064---Open-Source" data-name="064---Open-Source" transform="translate(-1.732)">
        <path id="Shape" d="M88.328,58.885V5.2a5.2,5.2,0,0,0-5.2-5.2H24.247a5.2,5.2,0,0,0-5.2,5.2V58.885Z" fill="#b0d3f0"/>
        <path id="Shape-2" data-name="Shape" d="M88.328,5.2v8.66H19.051V5.2a5.2,5.2,0,0,1,5.2-5.2H83.132A5.2,5.2,0,0,1,88.328,5.2Z" fill="#4482c3"/>
        <path id="Shape-3" data-name="Shape" d="M19.051,63.215a1.72,1.72,0,0,1-1.315-.606L2.149,44.424a1.732,1.732,0,1,1,2.629-2.251L20.366,60.357a1.732,1.732,0,0,1-1.315,2.858Z" fill="#b19046"/>
        <path id="Shape-4" data-name="Shape" d="M88.328,63.215a1.732,1.732,0,0,1-1.315-2.858L102.6,42.172a1.732,1.732,0,1,1,2.629,2.251L89.642,62.609a1.72,1.72,0,0,1-1.315.606Z" fill="#b19046"/>
        <path id="Shape-5" data-name="Shape" d="M15.587,55.421h76.2a1.732,1.732,0,0,1,1.732,1.732v38.1a5.2,5.2,0,0,1-5.2,5.2H19.051a5.2,5.2,0,0,1-5.2-5.2v-38.1A1.732,1.732,0,0,1,15.587,55.421Z" fill="#e4c05c"/>
        <path id="Shape-6" data-name="Shape" d="M81.4,8.66H69.277a1.732,1.732,0,1,1,0-3.464H81.4a1.732,1.732,0,1,1,0,3.464Z" fill="#fff"/>
        <path id="Shape-7" data-name="Shape" d="M27.711,22.515H25.979a1.732,1.732,0,0,1,0-3.464h1.732a1.732,1.732,0,1,1,0,3.464Z" fill="#fb7b76"/>
        <g id="Grupo_110885" data-name="Grupo 110885">
          <path id="Shape-8" data-name="Shape" d="M51.958,22.515H34.638a1.732,1.732,0,1,1,0-3.464H51.958a1.732,1.732,0,1,1,0,3.464Z" fill="#90bae1"/>
          <path id="Shape-9" data-name="Shape" d="M51.958,29.443H34.638a1.732,1.732,0,1,1,0-3.464H51.958a1.732,1.732,0,1,1,0,3.464Z" fill="#90bae1"/>
          <path id="Shape-10" data-name="Shape" d="M51.958,43.3H34.638a1.732,1.732,0,1,1,0-3.464H51.958a1.732,1.732,0,1,1,0,3.464Z" fill="#90bae1"/>
          <path id="Shape-11" data-name="Shape" d="M51.958,50.226H34.638a1.732,1.732,0,1,1,0-3.464H51.958a1.732,1.732,0,0,1,0,3.464Z" fill="#90bae1"/>
          <path id="Shape-12" data-name="Shape" d="M71.009,43.3H58.885a1.732,1.732,0,1,1,0-3.464H71.009a1.732,1.732,0,1,1,0,3.464Z" fill="#90bae1"/>
          <path id="Shape-13" data-name="Shape" d="M43.3,36.37h-8.66a1.732,1.732,0,0,1,0-3.464H43.3a1.732,1.732,0,1,1,0,3.464Z" fill="#90bae1"/>
        </g>
        <path id="Shape-14" data-name="Shape" d="M27.711,29.443H25.979a1.732,1.732,0,0,1,0-3.464h1.732a1.732,1.732,0,0,1,0,3.464Z" fill="#fb7b76"/>
        <path id="Shape-15" data-name="Shape" d="M62.349,29.443H58.885a1.732,1.732,0,0,1,0-3.464h3.464a1.732,1.732,0,1,1,0,3.464Z" fill="#90bae1"/>
        <path id="Shape-16" data-name="Shape" d="M81.4,43.3H77.936a1.732,1.732,0,1,1,0-3.464H81.4a1.732,1.732,0,1,1,0,3.464Z" fill="#90bae1"/>
        <path id="Shape-17" data-name="Shape" d="M79.668,29.443H69.277a1.732,1.732,0,1,1,0-3.464H79.668a1.732,1.732,0,1,1,0,3.464Z" fill="#90bae1"/>
        <path id="Shape-18" data-name="Shape" d="M27.711,36.37H25.979a1.732,1.732,0,0,1,0-3.464h1.732a1.732,1.732,0,1,1,0,3.464Z" fill="#fb7b76"/>
        <path id="Shape-19" data-name="Shape" d="M27.711,43.3H25.979a1.732,1.732,0,1,1,0-3.464h1.732a1.732,1.732,0,1,1,0,3.464Z" fill="#fb7b76"/>
        <path id="Shape-20" data-name="Shape" d="M27.711,50.226H25.979a1.732,1.732,0,0,1,0-3.464h1.732a1.732,1.732,0,0,1,0,3.464Z" fill="#fb7b76"/>
        <circle id="Oval" cx="1.732" cy="1.732" r="1.732" transform="translate(24.247 5.196)" fill="#f3d55b"/>
        <circle id="Oval-2" data-name="Oval" cx="1.732" cy="1.732" r="1.732" transform="translate(31.175 5.196)" fill="#ff5364"/>
        <circle id="Oval-3" data-name="Oval" cx="1.732" cy="1.732" r="1.732" transform="translate(38.102 5.196)" fill="#65ddb9"/>
        <path id="Shape-21" data-name="Shape" d="M48.494,76.2a1.732,1.732,0,0,1-1.732-1.732V67.545a6.928,6.928,0,0,1,13.855,0,1.732,1.732,0,1,1-3.464,0,3.464,3.464,0,0,0-6.928,0v6.928A1.732,1.732,0,0,1,48.494,76.2Z" fill="#e57e25"/>
        <rect id="Rectangle-path" width="20.783" height="19.051" rx="3.464" transform="translate(43.298 74.472)" fill="#b19046"/>
      </g>
    </g>
  </g>
</svg>
