<svg xmlns="http://www.w3.org/2000/svg" xmlns:xlink="http://www.w3.org/1999/xlink" width="102" height="102" viewBox="0 0 102 102">
  <defs>
    <filter id="Rect치ngulo_41487" x="0" y="0" width="102" height="102" filterUnits="userSpaceOnUse">
      <feOffset dy="3" input="SourceAlpha"/>
      <feGaussianBlur stdDeviation="3" result="blur"/>
      <feFlood flood-opacity="0.161"/>
      <feComposite operator="in" in2="blur"/>
      <feComposite in="SourceGraphic"/>
    </filter>
  </defs>
  <g id="Grupo_114627" data-name="Grupo 114627" transform="translate(-1262.636 -291.303)">
    <g transform="matrix(1, 0, 0, 1, 1262.64, 291.3)" filter="url(#Rect치ngulo_41487)">
      <rect id="Rect치ngulo_41487-2" data-name="Rect치ngulo 41487" width="84" height="84" rx="23" transform="translate(9 6)" fill="#fff"/>
    </g>
    <g id="Page-1" transform="translate(1281.623 307.29)">
      <g id="_042---Big-Data" data-name="042---Big-Data" transform="translate(0 0)">
        <path id="Shape" d="M61.541,24.208a12.055,12.055,0,0,1-11.867,12.22H11.888A10.108,10.108,0,0,1,1.931,26.184a10.26,10.26,0,0,1,.132-1.656,10.055,10.055,0,0,1,9.825-8.577h.2A11.3,11.3,0,0,1,23.148,6.16a10.792,10.792,0,0,1,2.981.408A13.812,13.812,0,0,1,37.83,0,14.076,14.076,0,0,1,51.6,12.165a12.085,12.085,0,0,1,9.836,10.377,11.855,11.855,0,0,1,.11,1.667Z" transform="translate(0.277 0)" fill="#d1d4d1"/>
        <path id="Shape-2" data-name="Shape" d="M61.414,22.541A12,12,0,0,1,49.658,33.117H11.872a10.055,10.055,0,0,1-9.825-8.588,10.055,10.055,0,0,1,9.825-8.577h.2A11.3,11.3,0,0,1,23.131,6.16a10.792,10.792,0,0,1,2.981.408A13.812,13.812,0,0,1,37.813,0,14.076,14.076,0,0,1,51.579,12.165a12.085,12.085,0,0,1,9.836,10.377Z" transform="translate(0.293 0)" fill="#ecf0f1"/>
        <path id="Shape-3" data-name="Shape" d="M47.049,38.63H31.595V29.8h7.727a3.312,3.312,0,0,0,3.312-3.312V24.279a1.1,1.1,0,1,0-2.208,0v2.208a1.1,1.1,0,0,1-1.1,1.1H31.595V16.552a1.1,1.1,0,1,0-2.208,0V27.591H21.66a1.1,1.1,0,0,1-1.1-1.1V24.279a1.1,1.1,0,0,0-2.208,0v2.208A3.312,3.312,0,0,0,21.66,29.8h7.727V38.63H13.932a3.312,3.312,0,0,0-3.312,3.312v2.208a1.1,1.1,0,1,0,2.208,0V41.942a1.1,1.1,0,0,1,1.1-1.1H47.049a1.1,1.1,0,0,1,1.1,1.1v2.208a1.1,1.1,0,1,0,2.208,0V41.942A3.312,3.312,0,0,0,47.049,38.63Z" transform="translate(1.522 2.214)" fill="#ff5364"/>
        <g id="Grupo_110864" data-name="Grupo 110864" transform="translate(17.662 12.143)">
          <circle id="Oval" cx="3.312" cy="3.312" r="3.312" transform="translate(0 7.727)" fill="#f0c419"/>
          <circle id="Oval-2" data-name="Oval" cx="3.312" cy="3.312" r="3.312" transform="translate(22.078 7.727)" fill="#f0c419"/>
          <circle id="Oval-3" data-name="Oval" cx="3.312" cy="3.312" r="3.312" transform="translate(11.039)" fill="#f0c419"/>
        </g>
        <rect id="Rectangle-path" width="26.493" height="6.623" rx="1.931" transform="translate(0 57.402)" fill="#547580"/>
        <rect id="Rectangle-path-2" data-name="Rectangle-path" width="26.493" height="6.623" rx="1.931" transform="translate(0 46.363)" fill="#547580"/>
        <path id="Rectangle-path-3" data-name="Rectangle-path" d="M1.931,46.345H24.009V50.76H1.931Z" transform="translate(0.277 6.642)" fill="#35495e"/>
        <path id="Shape-4" data-name="Shape" d="M5.1,54.207v2.208H2.9V54.207a1.1,1.1,0,1,1,2.208,0Z" transform="translate(0.415 7.611)" fill="#f0c419"/>
        <path id="Shape-5" data-name="Shape" d="M8.966,54.207v2.208H6.759V54.207a1.1,1.1,0,1,1,2.208,0Z" transform="translate(0.969 7.611)" fill="#67b9cc"/>
        <path id="Shape-6" data-name="Shape" d="M5.1,44.552V46.76H2.9V44.552a1.1,1.1,0,0,1,2.208,0Z" transform="translate(0.415 6.227)" fill="#f0c419"/>
        <path id="Shape-7" data-name="Shape" d="M8.966,44.552V46.76H6.759V44.552a1.1,1.1,0,0,1,2.208,0Z" transform="translate(0.969 6.227)" fill="#67b9cc"/>
        <rect id="Rectangle-path-4" data-name="Rectangle-path" width="26.493" height="6.623" rx="1.931" transform="translate(37.532 57.402)" fill="#547580"/>
        <rect id="Rectangle-path-5" data-name="Rectangle-path" width="26.493" height="6.623" rx="1.931" transform="translate(37.532 46.363)" fill="#547580"/>
        <path id="Rectangle-path-6" data-name="Rectangle-path" d="M34.759,46.345H56.836V50.76H34.759Z" transform="translate(4.982 6.642)" fill="#35495e"/>
        <path id="Shape-8" data-name="Shape" d="M37.932,54.207v2.208H35.724V54.207a1.1,1.1,0,1,1,2.208,0Z" transform="translate(5.12 7.611)" fill="#f0c419"/>
        <path id="Shape-9" data-name="Shape" d="M41.794,54.207v2.208H39.586V54.207a1.1,1.1,0,1,1,2.208,0Z" transform="translate(5.673 7.611)" fill="#67b9cc"/>
        <path id="Shape-10" data-name="Shape" d="M37.932,44.552V46.76H35.724V44.552a1.1,1.1,0,0,1,2.208,0Z" transform="translate(5.12 6.227)" fill="#f0c419"/>
        <path id="Shape-11" data-name="Shape" d="M41.794,44.552V46.76H39.586V44.552a1.1,1.1,0,0,1,2.208,0Z" transform="translate(5.673 6.227)" fill="#67b9cc"/>
      </g>
    </g>
  </g>
</svg>
