<svg xmlns="http://www.w3.org/2000/svg" width="92" height="93" viewBox="0 0 92 93">
  <g id="Grupo_114631" data-name="Grupo 114631" transform="translate(-334 -755)">
    <g id="Elipse_6004" data-name="Elipse 6004" transform="translate(334 755)" fill="#fff" stroke="#242ca3" stroke-width="4">
      <ellipse cx="46" cy="46.5" rx="46" ry="46.5" stroke="none"/>
      <ellipse cx="46" cy="46.5" rx="44" ry="44.5" fill="none"/>
    </g>
    <g id="Evaluacion" transform="translate(343.153 764.603)">
      <path id="Trazado_162218" data-name="Trazado 162218" d="M3.848,37.2a.989.989,0,0,0,.139-.2,2.931,2.931,0,0,1,3.16-2.283,2.47,2.47,0,0,1,2.592,2.042.952.952,0,0,0,.019.128c-.087.015.07,0,0,.061.066-.015,0-.042,0-.06a33.821,33.821,0,0,1-.012-4.917c.166-.324.494-.346.786-.385,2.616-.349,5.2-.855,7.788-1.38a1.3,1.3,0,0,1,.583-.031.357.357,0,0,1,.189.136,10.874,10.874,0,0,1,.067,3.08.766.766,0,0,1-.321.4,3.539,3.539,0,0,0-.007,5.557.819.819,0,0,1,.279.27,1.24,1.24,0,0,1-.018.958c-.231.263-.519.145-.793.118a4.113,4.113,0,0,0-2.873.625,1.184,1.184,0,0,0-.013,2.137,4.155,4.155,0,0,0,3.131.586,1.865,1.865,0,0,1,.708-.07c.242.2.239.5.313.77A13.63,13.63,0,0,0,29.611,54.759a5.512,5.512,0,0,1,.938.277c.151.073.176.177.042.3a1.055,1.055,0,0,1-.571.107c-1.675.006-3.354.061-5.025-.024a19.737,19.737,0,0,1-2.2-.148,13.114,13.114,0,0,1-8.315-3.462A13.477,13.477,0,0,1,10.263,44.9a.607.607,0,0,0-.6-.549,6.474,6.474,0,0,1-2.389-.579A5.908,5.908,0,0,1,4.09,40c-.046-.163-.069-.346-.243-.441Q3.849,38.381,3.848,37.2Z" fill="#e9ab9c"/>
      <path id="Trazado_162219" data-name="Trazado 162219" d="M19.033,30.286l-.14-.033a3.456,3.456,0,0,1-.688-1.466c-1.832-6.47-1.071-12.494,3.33-17.766a15.652,15.652,0,0,1,7.741-4.774,24.2,24.2,0,0,1,6.565-1.017c.328-.006.65.063.977.054a1.755,1.755,0,0,0,.705.019,17.125,17.125,0,0,1,7.745.689c4.4,1.506,6.862,4.719,7.908,9.143a21.622,21.622,0,0,1,.485,3.359c-.234.166-.464.043-.682-.033a16.09,16.09,0,0,0-4.187-.88,12.869,12.869,0,0,0-5.469.571,15.139,15.139,0,0,0-8.058,5.706,3.821,3.821,0,0,1-.628.749,41.22,41.22,0,0,1-9.569,4.23q-2.488.781-5.025,1.386A1.424,1.424,0,0,1,19.033,30.286Z" fill="#b06e3d"/>
      <path id="Trazado_162220" data-name="Trazado 162220" d="M19.033,30.286a69.653,69.653,0,0,0,10.258-3.153,52.644,52.644,0,0,0,5.3-2.634c.121.267-.061.458-.176.659A15.414,15.414,0,0,0,45.208,48.046c.353.058.749.013,1.044.3a13.9,13.9,0,0,1-10.3,6.894c-.79.122-1.6.107-2.4.155l-.112.024c-.647.052-1.295.021-1.942.018a1.09,1.09,0,0,1-.829-.3,13.116,13.116,0,0,1-4.75-1.694,13.808,13.808,0,0,1-5.274-5.45,10.831,10.831,0,0,1-1.354-3.978c.206-.294.556-.4.817-.62a1.223,1.223,0,0,0-.082-2.072c-.327-.252-.84-.24-1-.711l.009-1.034a3.59,3.59,0,0,0,1.3-4.919c-.292-.582-.853-.762-1.3-1.117Q19.029,31.914,19.033,30.286Z" fill="#fecabd"/>
      <path id="Trazado_162221" data-name="Trazado 162221" d="M36.82,5.281c-.218.221-.5.119-.744.124A22.375,22.375,0,0,0,26.329,7.6a15.2,15.2,0,0,0-7.717,8.683,18.949,18.949,0,0,0-1.136,7.471,17.1,17.1,0,0,0,1.266,5.939,1.055,1.055,0,0,1,.149.558c-2.318.546-4.661.958-7.011,1.332a8.9,8.9,0,0,0-2.022.371c-.137,1.395-.013,2.794-.07,4.19-.006.163.2.447-.172.5a2.891,2.891,0,0,0-2.47-1.934c-.48-2.2-1.031-4.385-1.389-6.615a29.833,29.833,0,0,1,.16-12.422,15.53,15.53,0,0,1,9.42-10.78A24.861,24.861,0,0,1,27.444,3.029a32.034,32.034,0,0,1,8.792,1.982C36.436,5.087,36.626,5.192,36.82,5.281Z" fill="#975e33"/>
      <path id="Trazado_162222" data-name="Trazado 162222" d="M48.738,17.434a15.849,15.849,0,0,1,4.925,1.059,17.523,17.523,0,0,1,5.12,3.533,15.531,15.531,0,0,1,2,19.219,4.961,4.961,0,0,1-1.311,1.967c-.412.5-.914.929-1.369,1.4a13.154,13.154,0,0,1-1.967,1.46c-.136-.088-.249-.013-.359.054a15.39,15.39,0,0,1-7.475,2.26c-.358.046-.707-.1-1.065-.058a15.239,15.239,0,0,1-11.356-7.918,14.545,14.545,0,0,1-1.957-7.632,15.461,15.461,0,0,1,4.489-10.83,15.245,15.245,0,0,1,8.254-4.449A5.385,5.385,0,0,1,48.738,17.434Z" fill="#f3dc45"/>
      <path id="Trazado_162223" data-name="Trazado 162223" d="M21.1,58.382a12.059,12.059,0,0,1,3.269,0c.167.112.17.292.191.462A4.421,4.421,0,0,0,30.226,62.6a4.356,4.356,0,0,0,3.092-3.551c.043-.228.034-.486.24-.659a33.381,33.381,0,0,1,4.761.145,8.178,8.178,0,0,1,6.364,6.282q.347,1.725.728,3.442c.087.392.069.61-.433.609q-12.853-.018-25.705-.016a.964.964,0,0,1-.13-.016.532.532,0,0,1-.134-.486,44.606,44.606,0,0,1,.8-5.29,7.963,7.963,0,0,1,2.09-3.784A2.97,2.97,0,0,1,23,58.543C22.433,58.51,21.743,58.773,21.1,58.382Z" fill="#8fdec2"/>
      <path id="Trazado_162224" data-name="Trazado 162224" d="M58,44.522a19.862,19.862,0,0,0,2.783-3.277c3.025,3.019,6.06,6.027,9.07,9.059a3.231,3.231,0,0,1,.592,3.9,3.7,3.7,0,0,1-3.9-.993C63.8,50.487,61.065,47.739,58.327,45A.849.849,0,0,1,58,44.522Z" fill="#b06e3d"/>
      <path id="Trazado_162225" data-name="Trazado 162225" d="M21.1,58.382h2.482c-2.716,1.35-3.535,3.72-3.911,6.345-.2,1.368-.355,2.74-.529,4.109q-3.163.013-6.325.028c-.24,0-.425.009-.349-.342a38.8,38.8,0,0,1,1.087-4.813A8.094,8.094,0,0,1,21.1,58.382Z" fill="#66b39c"/>
      <path id="Trazado_162226" data-name="Trazado 162226" d="M48.738,17.434a14.867,14.867,0,0,0-9.866,4.3,15.414,15.414,0,0,0-1.3,20.877,15.232,15.232,0,0,0,7.933,5.217c.58.164,1.184.249,1.778.371-.106.349-.345.169-.546.137l-.489.007a15.321,15.321,0,0,1-10.534-5.6,14.934,14.934,0,0,1-3.441-7.964,15.265,15.265,0,0,1,2.031-9.766c.1-.169.191-.34.288-.51a16.038,16.038,0,0,1,5.6-5.237,14.68,14.68,0,0,1,5.847-1.824A7.474,7.474,0,0,1,48.738,17.434Z" fill="#e9b04d"/>
      <path id="Trazado_162227" data-name="Trazado 162227" d="M58,44.522c.2.172.4.333.583.515,2.585,2.58,5.178,5.15,7.742,7.75a3.79,3.79,0,0,0,3.9,1.323c.06-.016.146.066.221.1a3.29,3.29,0,0,1-4.888,1.2,4.959,4.959,0,0,1-.6-.509q-4.416-4.412-8.825-8.829A13.228,13.228,0,0,1,58,44.522Z" fill="#975e33"/>
      <path id="Trazado_162228" data-name="Trazado 162228" d="M30.286,62.723a4.522,4.522,0,0,1-5.893-3.887c-.015-.151-.015-.3-.022-.455l.009-2.987a.678.678,0,0,1,.441-.066q4.132,0,8.263,0a.7.7,0,0,1,.441.064h.022q-.007,1.175-.012,2.348a1.126,1.126,0,0,1-.868.189c-1.439.006-2.879,0-4.316,0-.708,0-.822.1-.753.8a4.37,4.37,0,0,0,2.128,3.423C29.95,62.3,30.274,62.364,30.286,62.723Z" fill="#e9ab9c"/>
      <path id="Trazado_162229" data-name="Trazado 162229" d="M30.286,62.723A5.263,5.263,0,0,1,27.8,60.266a5.18,5.18,0,0,1-.421-1.885c-.007-.547.2-.646.683-.641,1.824.021,3.648,0,5.471,0,.007.216.015.433.021.65A4.494,4.494,0,0,1,30.286,62.723Z" fill="#fecabd"/>
      <path id="Trazado_162230" data-name="Trazado 162230" d="M33.527,55.393H24.379c-.524-.07-1.066.107-1.578-.125q3.593,0,7.186-.012c.228,0,.485.088.679-.122a10.68,10.68,0,0,0,2.257.133C33.127,55.271,33.363,55.178,33.527,55.393Z" fill="#eeb2a4"/>
      <path id="Trazado_162231" data-name="Trazado 162231" d="M46.739,48.335c.185-.034.4.057.546-.137a3.47,3.47,0,0,1,1.017.185A3.318,3.318,0,0,1,46.739,48.335Z" fill="#edc04a"/>
      <path id="Trazado_162232" data-name="Trazado 162232" d="M19.019,40.608c.374.2.765.383,1.119.619a1.335,1.335,0,0,1,.1,2.266,2.029,2.029,0,0,1-.953.519,4.121,4.121,0,0,1-4.315-.731,1.168,1.168,0,0,1,.016-1.836,4.045,4.045,0,0,1,3.454-.922C18.636,40.544,18.827,40.58,19.019,40.608Z" fill="#e38fb6"/>
      <path id="Trazado_162233" data-name="Trazado 162233" d="M19.025,33.54a1.677,1.677,0,0,1,1.46,1.044,4.346,4.346,0,0,1-.028,4.014,1.575,1.575,0,0,1-1.429.977,2.323,2.323,0,0,1-1.566-1.982,4.358,4.358,0,0,1,.324-2.98A1.975,1.975,0,0,1,19.025,33.54Z" fill="#454045"/>
      <path id="Trazado_162234" data-name="Trazado 162234" d="M9.735,40.605a1.329,1.329,0,0,1-.853-.546,1.762,1.762,0,0,0-1.955-.786,1.021,1.021,0,0,1-1.235-.682,1.035,1.035,0,0,1,.75-1.259,3.331,3.331,0,0,1,3.077.547.616.616,0,0,1,.219.574q0,1.076,0,2.151Z" fill="#de9280"/>
      <path id="Trazado_162235" data-name="Trazado 162235" d="M9.617,36.651c.219-.164.125-.4.127-.606.009-1.154,0-2.31.007-3.465,0-.21-.067-.44.107-.623v5.471l-.067.019C9.733,37.181,9.675,36.917,9.617,36.651Z" fill="#da9f8a"/>
      <path id="Trazado_162236" data-name="Trazado 162236" d="M9.735,40.605c.273.459.075.946,0,1.423V40.605Z" fill="#edb1a3"/>
      <path id="Trazado_162237" data-name="Trazado 162237" d="M28.875,46.5a4.929,4.929,0,0,1-4.316-2.7,1.174,1.174,0,0,1-.028-1.3c.467-.683,1.35-.553,1.782.26a2.925,2.925,0,0,0,5.242.131,1.4,1.4,0,0,1,.5-.668.955.955,0,0,1,1.2.113,1.038,1.038,0,0,1,.179,1.318,4.828,4.828,0,0,1-3.265,2.689A3.632,3.632,0,0,1,28.875,46.5Z" fill="#dc636e"/>
      <path id="Trazado_162238" data-name="Trazado 162238" d="M28.967,38.249c.629,0,1.259-.009,1.888,0a1,1,0,0,1,.987.92.96.96,0,0,1-.886,1.026q-1.984.051-3.972,0a.961.961,0,0,1-.89-1.023,1,1,0,0,1,.984-.923C27.708,38.241,28.338,38.249,28.967,38.249Z" fill="#e9ab9c"/>
      <path id="Trazado_162239" data-name="Trazado 162239" d="M35.377,32.876A12.357,12.357,0,1,1,47.725,45.285,12.278,12.278,0,0,1,35.377,32.876Z" fill="#e9b04d"/>
      <path id="Trazado_162240" data-name="Trazado 162240" d="M51.609,42.432a9,9,0,0,1-5.081.75,10.375,10.375,0,0,1-9.067-8.829,9.893,9.893,0,0,1,2.028-7.785,9.993,9.993,0,0,1,6.5-3.9,10.325,10.325,0,0,1,7.838,1.839,2.973,2.973,0,0,1,.058.65,46.208,46.208,0,0,1-1.7,16.2A1.792,1.792,0,0,1,51.609,42.432Z" fill="#e9ab9c"/>
      <path id="Trazado_162241" data-name="Trazado 162241" d="M51.609,42.432a31.908,31.908,0,0,0,1.678-6.938,55.1,55.1,0,0,0,.532-8.826c-.012-.54-.06-1.08-.091-1.62.333.018.465.3.632.512a11.636,11.636,0,0,1-1.166,15.865,8.735,8.735,0,0,1-.852.6c-.146.122-.355.151-.471.316A.278.278,0,0,1,51.609,42.432Z" fill="#cfe1e6"/>
      <path id="Trazado_162242" data-name="Trazado 162242" d="M45.965,27.3a3.326,3.326,0,0,1,1.706,2.11A5.619,5.619,0,0,1,47,34.721a2.593,2.593,0,0,1-1.147.922,4.013,4.013,0,0,1-1.939-3.074,5.6,5.6,0,0,1,.682-4.078C44.93,27.968,45.267,27.418,45.965,27.3Z" fill="#544f57"/>
      <path id="Trazado_162243" data-name="Trazado 162243" d="M45.965,27.3A4.723,4.723,0,0,0,44,31.064a5.475,5.475,0,0,0,1.849,4.579,2.3,2.3,0,0,1-2.747-.653,5.726,5.726,0,0,1-.052-7.047A2.293,2.293,0,0,1,45.965,27.3Z" fill="#454045"/>
    </g>
  </g>
</svg>
