<svg xmlns="http://www.w3.org/2000/svg" width="92" height="93" viewBox="0 0 92 93">
  <g id="Grupo_114635" data-name="Grupo 114635" transform="translate(-1176 -755)">
    <g id="Elipse_6008" data-name="Elipse 6008" transform="translate(1176 755)" fill="#fff" stroke="#242ca3" stroke-width="4">
      <ellipse cx="46" cy="46.5" rx="46" ry="46.5" stroke="none"/>
      <ellipse cx="46" cy="46.5" rx="44" ry="44.5" fill="none"/>
    </g>
    <g id="Calculadora" transform="translate(1188.96 768.152)">
      <path id="Trazado_162677" data-name="Trazado 162677" d="M17.866,22.708q.01-3.206.021-6.413a3.328,3.328,0,0,0,2.179.457c2.61-.012,5.221,0,7.831-.005,1.17,0,1.368-.2,1.369-1.369,0-2.61-.007-5.221.005-7.831a3.328,3.328,0,0,0-.457-2.179c.242-.007.482-.018.724-.018H60.914c1.117,0,1.365.254,1.365,1.389v53.22c0,1.135-.25,1.389-1.367,1.389H35.329c-.242,0-.482-.013-.724-.02a3.455,3.455,0,0,0,.448-2.247q0-17.276,0-34.553c0-1.48-.124-1.6-1.625-1.6q-7.266,0-14.533-.005C18.543,22.918,18.16,23.008,17.866,22.708Z" transform="translate(-1.241 0)" fill="#f1f1f1"/>
      <path id="Trazado_162678" data-name="Trazado 162678" d="M16.625,24.568q5.213.01,10.427.02c1.909,0,3.817,0,5.726,0,.9,0,1.225.326,1.225,1.241q0,18.054.009,36.107a1.256,1.256,0,0,1-.648,1.249c-.261.007-.523.02-.783.02H6.464c-1.158,0-1.422-.261-1.422-1.41V25.968c0-1.108.273-1.377,1.392-1.38Z" transform="translate(0 -1.86)" fill="#fe4974"/>
      <path id="Trazado_162679" data-name="Trazado 162679" d="M28.814,5.368a1.212,1.212,0,0,1,.647,1.186c-.015,3.05-.005,6.1-.008,9.149,0,.908-.323,1.231-1.231,1.232-3.05,0-6.1-.007-9.149.008a1.215,1.215,0,0,1-1.186-.647,1.329,1.329,0,0,1,.467-1.229q4.626-4.6,9.23-9.233A1.316,1.316,0,0,1,28.814,5.368Z" transform="translate(-1.241)" fill="#00e6b1"/>
      <path id="Trazado_162680" data-name="Trazado 162680" d="M52.06,32.994q.006-9.895.012-19.789c0-1.195.248-1.442,1.448-1.442q2.5,0,5.008,0c.955,0,1.266.31,1.268,1.26q0,9.623,0,19.246c0,.242.007.482.011.724a.975.975,0,0,1-.787.2q-3.088.01-6.174,0A.962.962,0,0,1,52.06,32.994Z" transform="translate(-4.55 -0.621)" fill="#fece0d"/>
      <path id="Trazado_162681" data-name="Trazado 162681" d="M49.861,41.693h9.285c1.039,0,1.34.293,1.34,1.308q0,2.592,0,5.185c0,.9-.329,1.228-1.24,1.229q-9.376,0-18.75,0c-.916,0-1.246-.323-1.249-1.219q-.006-2.652,0-5.305c0-.865.335-1.2,1.208-1.2Q45.159,41.689,49.861,41.693Z" transform="translate(-3.31 -3.517)" fill="#00e6b1"/>
      <path id="Trazado_162682" data-name="Trazado 162682" d="M41.372,34.235q.006-4.163.012-8.325c0-1.031.292-1.319,1.328-1.32q2.594,0,5.189,0c.875,0,1.2.329,1.207,1.2q.01,4.222.013,8.446a.975.975,0,0,1-.787.2q-3.088.01-6.174,0A.972.972,0,0,1,41.372,34.235Z" transform="translate(-3.516 -1.862)" fill="#fece0d"/>
      <path id="Trazado_162683" data-name="Trazado 162683" d="M41.166,35.269h17.4c.342.005.685-.011,1.025.02a.939.939,0,0,1,.89.961.951.951,0,0,1-.9.952c-.16.016-.321.007-.482.007H40.633c-.161,0-.323.009-.482-.007a.95.95,0,0,1-.9-.953.937.937,0,0,1,.89-.96C40.481,35.258,40.824,35.274,41.166,35.269Z" transform="translate(-3.311 -2.896)" fill="#e4a201"/>
      <path id="Trazado_162684" data-name="Trazado 162684" d="M50.073,52.382h7.234c.141,0,.281,0,.423,0a.968.968,0,1,1-.028,1.929c-.12,0-.242,0-.362,0H42.813c-.141,0-.281.005-.423,0a.965.965,0,1,1,.029-1.926c.14-.007.281,0,.423,0Z" transform="translate(-3.518 -4.552)" fill="#fece0d"/>
      <path id="Trazado_162685" data-name="Trazado 162685" d="M41.732,13.693q-2.773,0-5.544,0c-.778,0-1.2-.337-1.212-.947s.417-.982,1.175-.982q5.6,0,11.21,0c.727,0,1.167.42,1.121,1.035-.042.565-.446.89-1.145.893C45.469,13.7,43.6,13.693,41.732,13.693Z" transform="translate(-2.897 -0.621)" fill="#fe4974"/>
      <path id="Trazado_162686" data-name="Trazado 162686" d="M50.219,58.588c-1.829,0-3.656,0-5.485,0-.774,0-1.2-.342-1.208-.951s.42-.977,1.18-.977q5.575,0,11.149,0c.758,0,1.19.368,1.179.98s-.436.947-1.212.948Q53.022,58.593,50.219,58.588Z" transform="translate(-3.724 -4.966)" fill="#fece0d"/>
      <path id="Trazado_162687" data-name="Trazado 162687" d="M44.073,18.176c1.205,0,2.41,0,3.615,0,.776,0,1.2.338,1.211.948s-.419.98-1.176.981q-3.644.006-7.29,0c-.763,0-1.188-.362-1.18-.978s.432-.948,1.207-.951C41.663,18.173,42.867,18.176,44.073,18.176Z" transform="translate(-3.311 -1.241)" fill="#fe4974"/>
      <path id="Trazado_162688" data-name="Trazado 162688" d="M19.876,36.59q-4.642,0-9.285,0c-.953,0-1.271-.316-1.274-1.256q0-2.622,0-5.246c0-.9.33-1.223,1.245-1.223q9.376,0,18.75,0c.911,0,1.242.326,1.244,1.224q.006,2.652,0,5.305c0,.858-.342,1.192-1.215,1.192Q24.608,36.594,19.876,36.59Z" transform="translate(-0.414 -2.276)" fill="#00e6b1"/>
      <path id="Trazado_162689" data-name="Trazado 162689" d="M26.419,54.865q0-2.775,0-5.548c0-.881.322-1.207,1.191-1.211q1.719-.008,3.437,0c.83,0,1.162.338,1.163,1.178q.006,5.577,0,11.155c0,.84-.333,1.176-1.161,1.18q-1.749.01-3.5,0c-.792-.005-1.129-.346-1.132-1.147C26.415,58.6,26.419,56.734,26.419,54.865Z" transform="translate(-2.069 -4.138)" fill="#fece0d"/>
      <path id="Trazado_162690" data-name="Trazado 162690" d="M12.14,45.346c-.6,0-1.205.013-1.808,0a.932.932,0,0,1-1.01-1.021q-.022-1.868,0-3.737a.928.928,0,0,1,1-1.025q1.868-.024,3.737,0a.942.942,0,0,1,1.042,1.051q.018,1.838,0,3.676c-.007.709-.367,1.048-1.1,1.059C13.385,45.354,12.763,45.346,12.14,45.346Z" transform="translate(-0.413 -3.31)" fill="#fece0d"/>
      <path id="Trazado_162691" data-name="Trazado 162691" d="M20.768,45.346c-.6,0-1.205.008-1.808,0a.959.959,0,0,1-1.089-1.067q-.018-1.838,0-3.676a.942.942,0,0,1,1.05-1.043q1.838-.018,3.676,0a.957.957,0,0,1,1.06,1.095q.014,1.808,0,3.616a.961.961,0,0,1-1.081,1.076C21.973,45.356,21.371,45.346,20.768,45.346Z" transform="translate(-1.241 -3.31)" fill="#fece0d"/>
      <path id="Trazado_162692" data-name="Trazado 162692" d="M32.211,42.512c0,.6.013,1.205,0,1.808a.933.933,0,0,1-1.01,1.022q-1.9.024-3.8,0a.915.915,0,0,1-.976-.992q-.024-1.9,0-3.8a.915.915,0,0,1,.977-.99q1.929-.026,3.857,0a.907.907,0,0,1,.947.96C32.227,41.185,32.21,41.848,32.211,42.512Z" transform="translate(-2.068 -3.31)" fill="#fece0d"/>
      <path id="Trazado_162693" data-name="Trazado 162693" d="M12.252,48.106c.6,0,1.205-.011,1.808,0a.947.947,0,0,1,1.044,1.05q.02,1.838,0,3.676A.958.958,0,0,1,14.009,53.9q-1.808.014-3.616,0a.955.955,0,0,1-1.075-1.08q-.016-1.808,0-3.616c.007-.747.359-1.083,1.125-1.092C11.046,48.1,11.65,48.106,12.252,48.106Z" transform="translate(-0.413 -4.138)" fill="#fece0d"/>
      <path id="Trazado_162694" data-name="Trazado 162694" d="M20.814,48.106c.582,0,1.166-.008,1.748,0,.729.012,1.088.35,1.095,1.06q.018,1.838,0,3.676a.943.943,0,0,1-1.044,1.05q-1.838.02-3.676,0A.958.958,0,0,1,17.871,52.8q-.014-1.808,0-3.616a.96.96,0,0,1,1.075-1.081C19.568,48.1,20.191,48.106,20.814,48.106Z" transform="translate(-1.241 -4.138)" fill="#fece0d"/>
      <path id="Trazado_162695" data-name="Trazado 162695" d="M9.317,59.521c0-.6-.011-1.205,0-1.808a.945.945,0,0,1,1.042-1.051q1.868-.02,3.737,0A.928.928,0,0,1,15.1,57.688q.022,1.868,0,3.737a.929.929,0,0,1-1.01,1.021q-1.9.024-3.8,0a.921.921,0,0,1-.976-.993C9.3,60.807,9.318,60.164,9.317,59.521Z" transform="translate(-0.413 -4.965)" fill="#fece0d"/>
      <path id="Trazado_162696" data-name="Trazado 162696" d="M23.659,59.541c0,.6.008,1.205,0,1.808-.012.73-.35,1.089-1.059,1.1q-1.838.018-3.676,0A.942.942,0,0,1,17.872,61.4q-.02-1.868,0-3.737a.927.927,0,0,1,1.025-1q1.868-.022,3.737,0a.932.932,0,0,1,1.021,1.01C23.672,58.3,23.659,58.919,23.659,59.541Z" transform="translate(-1.241 -4.965)" fill="#fece0d"/>
    </g>
  </g>
</svg>
