<svg xmlns="http://www.w3.org/2000/svg" xmlns:xlink="http://www.w3.org/1999/xlink" width="630.421" height="507.481" viewBox="0 0 630.421 507.481">
  <defs>
    <filter id="Rectángulo_41501" x="22.271" y="335.38" width="183.248" height="156.087" filterUnits="userSpaceOnUse">
      <feOffset dy="-1" input="SourceAlpha"/>
      <feGaussianBlur stdDeviation="3" result="blur"/>
      <feFlood flood-opacity="0.161"/>
      <feComposite operator="in" in2="blur"/>
      <feComposite in="SourceGraphic"/>
    </filter>
    <filter id="Rectángulo_41499" x="0.271" y="348.833" width="210.248" height="156.087" filterUnits="userSpaceOnUse">
      <feOffset input="SourceAlpha"/>
      <feGaussianBlur stdDeviation="3" result="blur-2"/>
      <feFlood flood-opacity="0.161"/>
      <feComposite operator="in" in2="blur-2"/>
      <feComposite in="SourceGraphic"/>
    </filter>
    <filter id="Rectángulo_41501-2" x="442.173" y="335.381" width="183.248" height="156.087" filterUnits="userSpaceOnUse">
      <feOffset dy="-1" input="SourceAlpha"/>
      <feGaussianBlur stdDeviation="3" result="blur-3"/>
      <feFlood flood-opacity="0.161"/>
      <feComposite operator="in" in2="blur-3"/>
      <feComposite in="SourceGraphic"/>
    </filter>
    <filter id="Rectángulo_41499-2" x="420.173" y="348.834" width="210.248" height="156.087" filterUnits="userSpaceOnUse">
      <feOffset input="SourceAlpha"/>
      <feGaussianBlur stdDeviation="3" result="blur-4"/>
      <feFlood flood-opacity="0.161"/>
      <feComposite operator="in" in2="blur-4"/>
      <feComposite in="SourceGraphic"/>
    </filter>
  </defs>
  <g id="Grupo_114636" data-name="Grupo 114636" transform="translate(-485.63 -1480)">
    <g id="Grupo_109679" data-name="Grupo 109679" transform="translate(678.315 1480)">
      <path id="Trazado_161577" data-name="Trazado 161577" d="M1687.6-44.733V-48.11a9.929,9.929,0,0,0-9.929-9.929H1574.14a9.929,9.929,0,0,0-9.929,9.929V130.926h246.77V-34.8a9.929,9.929,0,0,0-9.929-9.929Z" transform="translate(-1564.211 58.039)" fill="#ffdf4f"/>
      <rect id="Rectángulo_41497" data-name="Rectángulo 41497" width="227.167" height="163.168" transform="translate(10.954 27.613)" fill="#fff"/>
      <path id="Trazado_161578" data-name="Trazado 161578" d="M1684.076,18.054l-3.663,10.156H1574.14a9.929,9.929,0,0,0-9.929,9.929V164.551a9.929,9.929,0,0,0,9.929,9.929h226.912a9.929,9.929,0,0,0,9.929-9.929V21.423a9.929,9.929,0,0,0-9.929-9.929H1693.416A9.929,9.929,0,0,0,1684.076,18.054Z" transform="translate(-1564.211 29.96)" fill="#ffcc01"/>
      <path id="Trazado_161579" data-name="Trazado 161579" d="M1812.85,212.4V129.981c-68.543,66.671-187.432,84.511-244.009,89.276a9.892,9.892,0,0,0,7.168,3.07h226.912A9.929,9.929,0,0,0,1812.85,212.4Z" transform="translate(-1566.081 -17.886)" fill="#fcbd11"/>
      <g id="Grupo_109678" data-name="Grupo 109678" transform="translate(8.282 66.162)">
        <path id="Trazado_161580" data-name="Trazado 161580" d="M1670.031,52.937h-83.91a8.018,8.018,0,0,0-8.018,8.017V78.714C1592.218,69.044,1624.067,56.863,1670.031,52.937Z" transform="translate(-1578.103 -52.937)" fill="#ffd715"/>
      </g>
    </g>
    <g id="Grupo_109683" data-name="Grupo 109683" transform="translate(485.63 1814.465)">
      <path id="Trazado_161585" data-name="Trazado 161585" d="M1345.432,514.231v-2.858a8.4,8.4,0,0,0-8.4-8.4h-87.614a8.4,8.4,0,0,0-8.4,8.4V662.888h208.838V522.633a8.4,8.4,0,0,0-8.4-8.4Z" transform="translate(-1241.013 -502.97)" fill="#ffdf4f"/>
      <g transform="matrix(1, 0, 0, 1, 0, -334.46)" filter="url(#Rectángulo_41501)">
        <rect id="Rectángulo_41501-3" data-name="Rectángulo 41501" width="165.248" height="138.087" transform="translate(31.27 345.38)" fill="#fff"/>
      </g>
      <g transform="matrix(1, 0, 0, 1, 0, -334.46)" filter="url(#Rectángulo_41499)">
        <rect id="Rectángulo_41499-3" data-name="Rectángulo 41499" width="192.248" height="138.087" transform="translate(9.27 357.83)" fill="#fff"/>
      </g>
      <path id="Trazado_161586" data-name="Trazado 161586" d="M1342.454,567.367l-3.1,8.6h-89.938a8.4,8.4,0,0,0-8.4,8.4V691.345a8.4,8.4,0,0,0,8.4,8.4h192.033a8.4,8.4,0,0,0,8.4-8.4V570.218a8.4,8.4,0,0,0-8.4-8.4h-91.09A8.4,8.4,0,0,0,1342.454,567.367Z" transform="translate(-1241.013 -526.732)" fill="#ffcc01"/>
      <path id="Trazado_161587" data-name="Trazado 161587" d="M1451.433,731.837V662.088c-58.007,56.423-158.621,71.521-206.5,75.553a8.373,8.373,0,0,0,6.067,2.6H1443.03A8.4,8.4,0,0,0,1451.433,731.837Z" transform="translate(-1242.595 -567.224)" fill="#fcbd11"/>
      <g id="Grupo_109682" data-name="Grupo 109682" transform="translate(7.009 55.992)">
        <path id="Trazado_161588" data-name="Trazado 161588" d="M1330.567,596.888h-71.012a6.785,6.785,0,0,0-6.785,6.785V618.7C1264.715,610.519,1291.668,600.211,1330.567,596.888Z" transform="translate(-1252.77 -596.888)" fill="#ffd715"/>
      </g>
    </g>
    <g id="Grupo_109689" data-name="Grupo 109689" transform="translate(905.532 1814.466)">
      <path id="Trazado_161585-2" data-name="Trazado 161585" d="M1345.432,514.231v-2.858a8.4,8.4,0,0,0-8.4-8.4h-87.614a8.4,8.4,0,0,0-8.4,8.4V662.888h208.838V522.633a8.4,8.4,0,0,0-8.4-8.4Z" transform="translate(-1241.013 -502.97)" fill="#ffdf4f"/>
      <g transform="matrix(1, 0, 0, 1, -419.9, -334.47)" filter="url(#Rectángulo_41501-2)">
        <rect id="Rectángulo_41501-4" data-name="Rectángulo 41501" width="165.248" height="138.087" transform="translate(451.17 345.38)" fill="#fff"/>
      </g>
      <g transform="matrix(1, 0, 0, 1, -419.9, -334.47)" filter="url(#Rectángulo_41499-2)">
        <rect id="Rectángulo_41499-4" data-name="Rectángulo 41499" width="192.248" height="138.087" transform="translate(429.17 357.83)" fill="#fff"/>
      </g>
      <path id="Trazado_161586-2" data-name="Trazado 161586" d="M1342.454,567.367l-3.1,8.6h-89.938a8.4,8.4,0,0,0-8.4,8.4V691.345a8.4,8.4,0,0,0,8.4,8.4h192.033a8.4,8.4,0,0,0,8.4-8.4V570.218a8.4,8.4,0,0,0-8.4-8.4h-91.09A8.4,8.4,0,0,0,1342.454,567.367Z" transform="translate(-1241.013 -526.732)" fill="#ffcc01"/>
      <path id="Trazado_161587-2" data-name="Trazado 161587" d="M1451.433,731.837V662.088c-58.007,56.423-158.621,71.521-206.5,75.553a8.373,8.373,0,0,0,6.067,2.6H1443.03A8.4,8.4,0,0,0,1451.433,731.837Z" transform="translate(-1242.595 -567.224)" fill="#fcbd11"/>
      <g id="Grupo_109682-2" data-name="Grupo 109682" transform="translate(7.009 55.992)">
        <path id="Trazado_161588-2" data-name="Trazado 161588" d="M1330.567,596.888h-71.012a6.785,6.785,0,0,0-6.785,6.785V618.7C1264.715,610.519,1291.668,600.211,1330.567,596.888Z" transform="translate(-1252.77 -596.888)" fill="#ffd715"/>
      </g>
    </g>
    <g id="Grupo_109684" data-name="Grupo 109684" transform="translate(584.105 1685.473)">
      <rect id="Rectángulo_41500" data-name="Rectángulo 41500" width="3.261" height="75.596" transform="translate(216.328)" fill="#242ca3"/>
      <path id="Trazado_161589" data-name="Trazado 161589" d="M1775.137,396.876a11.271,11.271,0,1,0-11.267,11.274A11.269,11.269,0,0,0,1775.137,396.876Z" transform="translate(-1546.074 -326.584)" fill="#242ca3"/>
      <path id="Trazado_161590" data-name="Trazado 161590" d="M1421.686,477.7a7.748,7.748,0,1,0-7.764,7.74A7.757,7.757,0,0,0,1421.686,477.7Z" transform="translate(-1406.19 -360.643)" fill="#242ca3"/>
      <path id="Trazado_161591" data-name="Trazado 161591" d="M2126.184,477.7a7.754,7.754,0,1,0-7.764,7.74A7.762,7.762,0,0,0,2126.184,477.7Z" transform="translate(-1690.672 -360.643)" fill="#242ca3"/>
      <path id="Trazado_161592" data-name="Trazado 161592" d="M1839.753,449.161h-2.981v-46.9H1420.379v46.9H1417.4V399.285h422.354Z" transform="translate(-1410.716 -332.108)" fill="#242ca3"/>
    </g>
    <path id="Trazado_162722" data-name="Trazado 162722" d="M-23.73-20.83h-7.682V0h-6.17V-20.83h-7.541v-4.764H-23.73ZM-15.152,0h-5.941V-19.02h5.941Zm-6.293-23.924A2.644,2.644,0,0,1-20.531-26a3.449,3.449,0,0,1,2.373-.809A3.449,3.449,0,0,1-15.785-26a2.644,2.644,0,0,1,.914,2.074,2.644,2.644,0,0,1-.914,2.074,3.449,3.449,0,0,1-2.373.809,3.449,3.449,0,0,1-2.373-.809A2.644,2.644,0,0,1-21.445-23.924ZM6.152-9.369a11.47,11.47,0,0,1-2,7.075A6.4,6.4,0,0,1-1.23.352,5.483,5.483,0,0,1-5.537-1.564V7.313h-5.924V-19.02h5.537l.176,1.758a5.484,5.484,0,0,1,4.482-2.109A6.448,6.448,0,0,1,4.2-16.778,11.611,11.611,0,0,1,6.152-9.65ZM.229-9.738q0-5.062-2.953-5.062a2.788,2.788,0,0,0-2.812,1.512V-5.8A2.879,2.879,0,0,0-2.689-4.219q2.83,0,2.918-4.887Zm7.787.053a11.226,11.226,0,0,1,1.107-5.071A7.919,7.919,0,0,1,12.3-18.176a9.582,9.582,0,0,1,4.869-1.2,8.745,8.745,0,0,1,6.732,2.646,10.151,10.151,0,0,1,2.461,7.2v.211A9.849,9.849,0,0,1,23.9-2.259,8.768,8.768,0,0,1,17.209.352a8.868,8.868,0,0,1-6.521-2.435,9.522,9.522,0,0,1-2.654-6.6Zm5.924.369a7.077,7.077,0,0,0,.826,3.867,2.752,2.752,0,0,0,2.443,1.23q3.164,0,3.234-4.869v-.6q0-5.115-3.27-5.115-2.971,0-3.217,4.412Zm25,3.973a1.369,1.369,0,0,0-.791-1.213,12.032,12.032,0,0,0-3.006-.949A13.707,13.707,0,0,1,31.482-8.8a6.124,6.124,0,0,1-2.2-1.942,4.638,4.638,0,0,1-.756-2.619,5.257,5.257,0,0,1,2.162-4.315,8.906,8.906,0,0,1,5.66-1.7A9.868,9.868,0,0,1,42.4-17.666a5.332,5.332,0,0,1,2.285,4.482H38.742q0-2.285-2.408-2.285a2.387,2.387,0,0,0-1.564.519,1.606,1.606,0,0,0-.633,1.292,1.474,1.474,0,0,0,.773,1.283,7.308,7.308,0,0,0,2.47.809,21.342,21.342,0,0,1,2.979.756q4.289,1.477,4.289,5.291a4.981,4.981,0,0,1-2.312,4.236A10.137,10.137,0,0,1,36.352.352a10.344,10.344,0,0,1-4.359-.879A7.29,7.29,0,0,1,29-2.918,5.413,5.413,0,0,1,27.932-6.1h5.537a2.289,2.289,0,0,0,.879,1.925,3.615,3.615,0,0,0,2.162.606,2.844,2.844,0,0,0,1.819-.492A1.574,1.574,0,0,0,38.936-5.344ZM-68.414,33.35a11.618,11.618,0,0,1,1.951-7.119,6.422,6.422,0,0,1,5.449-2.6,5.462,5.462,0,0,1,4.289,2V16h5.941V43h-5.326l-.3-2.039a5.609,5.609,0,0,1-4.641,2.391,6.411,6.411,0,0,1-5.379-2.6Q-68.414,38.148-68.414,33.35Zm5.924.369q0,5.063,2.953,5.063a2.916,2.916,0,0,0,2.813-1.652V29.887A2.838,2.838,0,0,0-59.5,28.2q-2.742,0-2.971,4.43Zm24.275,9.633a9.777,9.777,0,0,1-7.084-2.61,9.014,9.014,0,0,1-2.707-6.794v-.492a11.68,11.68,0,0,1,1.081-5.15,7.91,7.91,0,0,1,3.155-3.454,9.525,9.525,0,0,1,4.922-1.222,8.233,8.233,0,0,1,6.328,2.487,9.774,9.774,0,0,1,2.32,6.935v2.3H-41.977a4.27,4.27,0,0,0,1.389,2.514,4.132,4.132,0,0,0,2.777.914,5.324,5.324,0,0,0,4.395-1.969l2.707,3.2a7.567,7.567,0,0,1-3.138,2.435A10.6,10.6,0,0,1-38.215,43.352ZM-38.883,28.2q-2.6,0-3.094,3.445H-36v-.457a2.934,2.934,0,0,0-.721-2.206A2.868,2.868,0,0,0-38.883,28.2ZM-19.6,33.35a11.618,11.618,0,0,1,1.951-7.119,6.422,6.422,0,0,1,5.449-2.6,5.462,5.462,0,0,1,4.289,2V16h5.941V43H-7.295l-.3-2.039a5.609,5.609,0,0,1-4.641,2.391,6.411,6.411,0,0,1-5.379-2.6Q-19.6,38.148-19.6,33.35Zm5.924.369q0,5.063,2.953,5.063A2.916,2.916,0,0,0-7.91,37.129V29.887A2.838,2.838,0,0,0-10.687,28.2q-2.742,0-2.971,4.43ZM12.111,43a6.689,6.689,0,0,1-.562-1.705,5.508,5.508,0,0,1-4.57,2.057,6.748,6.748,0,0,1-4.57-1.626A5.175,5.175,0,0,1,.527,37.639a5.319,5.319,0,0,1,2.285-4.676Q5.1,31.381,9.457,31.381h1.828V30.374q0-2.632-2.268-2.632a1.853,1.853,0,0,0-2.109,2.084H.984A5.31,5.31,0,0,1,3.331,25.35a9.862,9.862,0,0,1,5.985-1.721A8.647,8.647,0,0,1,15.064,25.4a6.173,6.173,0,0,1,2.162,4.869v8.42a8.623,8.623,0,0,0,.809,4.008V43ZM8.4,39.133a3.3,3.3,0,0,0,1.837-.475,2.975,2.975,0,0,0,1.046-1.072V34.545H9.563q-3.094,0-3.094,2.777a1.7,1.7,0,0,0,.545,1.31A1.972,1.972,0,0,0,8.4,39.133Zm19-19.881V23.98h3.129v4.113H27.4v8.7a2.222,2.222,0,0,0,.387,1.494,2.074,2.074,0,0,0,1.529.422,8.69,8.69,0,0,0,1.477-.105v4.236a10.933,10.933,0,0,1-3.34.51,6.206,6.206,0,0,1-4.518-1.441,5.908,5.908,0,0,1-1.459-4.377V28.094H19.055V23.98H21.48V19.252Zm4.184,14.063A11.226,11.226,0,0,1,32.7,28.243a7.919,7.919,0,0,1,3.182-3.419,9.582,9.582,0,0,1,4.869-1.2,8.745,8.745,0,0,1,6.732,2.646,10.151,10.151,0,0,1,2.461,7.2v.211a9.849,9.849,0,0,1-2.47,7.058,8.768,8.768,0,0,1-6.688,2.61,8.868,8.868,0,0,1-6.521-2.435,9.522,9.522,0,0,1-2.654-6.6Zm5.924.369a7.077,7.077,0,0,0,.826,3.867,2.752,2.752,0,0,0,2.443,1.23q3.164,0,3.234-4.869v-.6q0-5.115-3.27-5.115-2.971,0-3.217,4.412Zm25,3.973a1.369,1.369,0,0,0-.791-1.213,12.032,12.032,0,0,0-3.006-.949A13.707,13.707,0,0,1,55.055,34.2a6.124,6.124,0,0,1-2.2-1.942,4.638,4.638,0,0,1-.756-2.619,5.257,5.257,0,0,1,2.162-4.315,8.906,8.906,0,0,1,5.66-1.7,9.868,9.868,0,0,1,6.047,1.705,5.332,5.332,0,0,1,2.285,4.482H62.314q0-2.285-2.408-2.285a2.387,2.387,0,0,0-1.564.519,1.606,1.606,0,0,0-.633,1.292,1.474,1.474,0,0,0,.773,1.283,7.308,7.308,0,0,0,2.47.809,21.342,21.342,0,0,1,2.979.756q4.289,1.477,4.289,5.291a4.981,4.981,0,0,1-2.312,4.236,10.137,10.137,0,0,1-5.985,1.635,10.344,10.344,0,0,1-4.359-.879,7.29,7.29,0,0,1-2.988-2.391A5.413,5.413,0,0,1,51.5,36.9h5.537a2.289,2.289,0,0,0,.879,1.925,3.615,3.615,0,0,0,2.162.606,2.844,2.844,0,0,0,1.819-.492A1.574,1.574,0,0,0,62.508,37.656Z" transform="translate(802.021 1595.554)" fill="#3d4e63"/>
    <path id="Trazado_162723" data-name="Trazado 162723" d="M-29.666,0V-17.062h5.5A8.085,8.085,0,0,1-20.1-16.037a7.208,7.208,0,0,1,2.818,2.895A8.739,8.739,0,0,1-16.26-8.953v.785a8.79,8.79,0,0,1-.99,4.2,7.239,7.239,0,0,1-2.789,2.906A7.907,7.907,0,0,1-24.053,0Zm4.113-13.887V-3.164h1.43A3.2,3.2,0,0,0-21.4-4.424a6.173,6.173,0,0,0,.949-3.744v-.738a6.123,6.123,0,0,0-.949-3.727,3.256,3.256,0,0,0-2.766-1.254ZM-7.189,0a4.459,4.459,0,0,1-.375-1.137A3.672,3.672,0,0,1-10.611.234,4.5,4.5,0,0,1-13.658-.85a3.45,3.45,0,0,1-1.254-2.725,3.546,3.546,0,0,1,1.523-3.117,7.761,7.761,0,0,1,4.43-1.055H-7.74v-.671q0-1.755-1.512-1.755a1.236,1.236,0,0,0-1.406,1.39h-3.949a3.54,3.54,0,0,1,1.564-2.985,6.575,6.575,0,0,1,3.99-1.147A5.764,5.764,0,0,1-5.221-11.73,4.115,4.115,0,0,1-3.779-8.484v5.613A5.748,5.748,0,0,0-3.24-.2V0ZM-9.662-2.578a2.2,2.2,0,0,0,1.225-.316,1.983,1.983,0,0,0,.7-.715V-5.637H-8.889q-2.062,0-2.062,1.852a1.131,1.131,0,0,0,.363.873A1.315,1.315,0,0,0-9.662-2.578ZM3.006-15.832v3.152H5.092v2.742H3.006v5.8a1.481,1.481,0,0,0,.258,1,1.383,1.383,0,0,0,1.02.281,5.793,5.793,0,0,0,.984-.07V-.105a7.288,7.288,0,0,1-2.227.34A4.137,4.137,0,0,1,.029-.727,3.939,3.939,0,0,1-.943-3.645V-9.937H-2.561V-12.68H-.943v-3.152ZM5.795-6.457a7.484,7.484,0,0,1,.738-3.381,5.28,5.28,0,0,1,2.121-2.279,6.388,6.388,0,0,1,3.246-.8,5.83,5.83,0,0,1,4.488,1.764,6.768,6.768,0,0,1,1.641,4.8v.141a6.566,6.566,0,0,1-1.646,4.705A5.846,5.846,0,0,1,11.924.234,5.912,5.912,0,0,1,7.576-1.389a6.348,6.348,0,0,1-1.77-4.4Zm3.949.246a4.718,4.718,0,0,0,.551,2.578,1.835,1.835,0,0,0,1.629.82q2.109,0,2.156-3.246v-.4q0-3.41-2.18-3.41-1.98,0-2.145,2.941ZM26.408-3.562a.912.912,0,0,0-.527-.809,8.021,8.021,0,0,0-2-.633,9.138,9.138,0,0,1-2.437-.861A4.083,4.083,0,0,1,19.975-7.16a3.092,3.092,0,0,1-.5-1.746,3.5,3.5,0,0,1,1.441-2.877,5.938,5.938,0,0,1,3.773-1.131,6.579,6.579,0,0,1,4.031,1.137A3.555,3.555,0,0,1,30.24-8.789H26.279q0-1.523-1.605-1.523a1.591,1.591,0,0,0-1.043.346,1.07,1.07,0,0,0-.422.861.982.982,0,0,0,.516.855,4.872,4.872,0,0,0,1.646.539,14.228,14.228,0,0,1,1.986.5q2.859.984,2.859,3.527A3.321,3.321,0,0,1,28.676-.855a6.758,6.758,0,0,1-3.99,1.09,6.9,6.9,0,0,1-2.906-.586,4.86,4.86,0,0,1-1.992-1.594,3.609,3.609,0,0,1-.715-2.121h3.691a1.526,1.526,0,0,0,.586,1.283,2.41,2.41,0,0,0,1.441.4A1.9,1.9,0,0,0,26-2.707,1.05,1.05,0,0,0,26.408-3.562Zm-94.775,24.8a6.518,6.518,0,0,1-4.723-1.74,6.009,6.009,0,0,1-1.8-4.529v-.328a7.787,7.787,0,0,1,.721-3.434,5.274,5.274,0,0,1,2.1-2.3,6.35,6.35,0,0,1,3.281-.814A5.489,5.489,0,0,1-64.57,9.744a6.516,6.516,0,0,1,1.547,4.623V15.9h-7.852a2.846,2.846,0,0,0,.926,1.676,2.755,2.755,0,0,0,1.852.609,3.549,3.549,0,0,0,2.93-1.312l1.8,2.133a5.045,5.045,0,0,1-2.092,1.623A7.069,7.069,0,0,1-68.367,21.234Zm-.445-10.1q-1.734,0-2.062,2.3h3.984v-.3a1.956,1.956,0,0,0-.48-1.471A1.912,1.912,0,0,0-68.812,11.133Zm14.016,6.3a.912.912,0,0,0-.527-.809,8.021,8.021,0,0,0-2-.633,9.138,9.138,0,0,1-2.437-.861A4.083,4.083,0,0,1-61.23,13.84a3.092,3.092,0,0,1-.5-1.746,3.5,3.5,0,0,1,1.441-2.877A5.938,5.938,0,0,1-56.52,8.086a6.579,6.579,0,0,1,4.031,1.137,3.555,3.555,0,0,1,1.523,2.988h-3.961q0-1.523-1.605-1.523a1.591,1.591,0,0,0-1.043.346,1.07,1.07,0,0,0-.422.861.982.982,0,0,0,.516.855,4.872,4.872,0,0,0,1.646.539,14.228,14.228,0,0,1,1.986.5q2.859.984,2.859,3.527a3.321,3.321,0,0,1-1.541,2.824,6.758,6.758,0,0,1-3.99,1.09,6.9,6.9,0,0,1-2.906-.586,4.86,4.86,0,0,1-1.992-1.594,3.609,3.609,0,0,1-.715-2.121h3.691a1.526,1.526,0,0,0,.586,1.283,2.41,2.41,0,0,0,1.441.4,1.9,1.9,0,0,0,1.213-.328A1.05,1.05,0,0,0-54.8,17.438Zm10.254-12.27V8.32h2.086v2.742h-2.086v5.8a1.481,1.481,0,0,0,.258,1,1.383,1.383,0,0,0,1.02.281,5.793,5.793,0,0,0,.984-.07v2.824a7.288,7.288,0,0,1-2.227.34,4.137,4.137,0,0,1-3.012-.961,3.939,3.939,0,0,1-.973-2.918V11.063h-1.617V8.32h1.617V5.168Zm11.309,6.727-1.3-.094a2.336,2.336,0,0,0-2.391,1.172V21h-3.949V8.32h3.7l.129,1.629a3.058,3.058,0,0,1,2.777-1.863,3.851,3.851,0,0,1,1.1.141Zm8.977,7.734a4.072,4.072,0,0,1-3.387,1.605A3.993,3.993,0,0,1-30.8,20.021a5.1,5.1,0,0,1-1.072-3.486V8.32h3.949v8.238a1.419,1.419,0,0,0,1.582,1.629,2.064,2.064,0,0,0,1.934-.973V8.32h3.973V21h-3.7Zm11.344-1.441a1.756,1.756,0,0,0,1.289-.451,1.654,1.654,0,0,0,.445-1.26h3.7A4.384,4.384,0,0,1-8.971,19.9a5.558,5.558,0,0,1-3.85,1.336A5.627,5.627,0,0,1-17.18,19.5a6.834,6.834,0,0,1-1.594-4.8v-.164a7.723,7.723,0,0,1,.709-3.393A5.162,5.162,0,0,1-16.02,8.877a6.1,6.1,0,0,1,3.164-.791A5.488,5.488,0,0,1-8.93,9.457a4.863,4.863,0,0,1,1.453,3.715h-3.7a2.168,2.168,0,0,0-.48-1.512,1.658,1.658,0,0,0-1.289-.527q-1.535,0-1.793,1.957a13.809,13.809,0,0,0-.082,1.711,5.424,5.424,0,0,0,.457,2.648A1.582,1.582,0,0,0-12.914,18.188ZM-1.207,5.168V8.32H.879v2.742H-1.207v5.8a1.481,1.481,0,0,0,.258,1,1.383,1.383,0,0,0,1.02.281,5.793,5.793,0,0,0,.984-.07v2.824a7.288,7.288,0,0,1-2.227.34,4.137,4.137,0,0,1-3.012-.961,3.939,3.939,0,0,1-.973-2.918V11.063H-6.773V8.32h1.617V5.168ZM9.984,19.629A4.072,4.072,0,0,1,6.6,21.234a3.993,3.993,0,0,1-3.158-1.213,5.1,5.1,0,0,1-1.072-3.486V8.32H6.316v8.238A1.419,1.419,0,0,0,7.9,18.188a2.064,2.064,0,0,0,1.934-.973V8.32H13.8V21H10.1Zm13.652-7.734-1.3-.094a2.336,2.336,0,0,0-2.391,1.172V21H16V8.32h3.7l.129,1.629a3.058,3.058,0,0,1,2.777-1.863,3.851,3.851,0,0,1,1.1.141ZM31.852,21a4.459,4.459,0,0,1-.375-1.137,3.672,3.672,0,0,1-3.047,1.371,4.5,4.5,0,0,1-3.047-1.084,3.45,3.45,0,0,1-1.254-2.725,3.546,3.546,0,0,1,1.523-3.117,7.761,7.761,0,0,1,4.43-1.055H31.3v-.671q0-1.755-1.512-1.755a1.236,1.236,0,0,0-1.406,1.39H24.434A3.54,3.54,0,0,1,26,9.233a6.575,6.575,0,0,1,3.99-1.147A5.764,5.764,0,0,1,33.82,9.27a4.115,4.115,0,0,1,1.441,3.246v5.613A5.748,5.748,0,0,0,35.8,20.8V21Zm-2.473-2.578a2.2,2.2,0,0,0,1.225-.316,1.983,1.983,0,0,0,.7-.715V15.363H30.152q-2.062,0-2.062,1.852a1.131,1.131,0,0,0,.363.873A1.315,1.315,0,0,0,29.379,18.422Zm7.57-3.855a7.746,7.746,0,0,1,1.3-4.746,4.282,4.282,0,0,1,3.633-1.734,3.641,3.641,0,0,1,2.859,1.336V3H48.7V21H45.152l-.2-1.359a3.739,3.739,0,0,1-3.094,1.594A4.274,4.274,0,0,1,38.273,19.5,7.991,7.991,0,0,1,36.949,14.566Zm3.949.246q0,3.375,1.969,3.375a1.944,1.944,0,0,0,1.875-1.1V12.258a1.892,1.892,0,0,0-1.852-1.125q-1.828,0-1.98,2.953Zm9.551-.27a7.484,7.484,0,0,1,.738-3.381,5.28,5.28,0,0,1,2.121-2.279,6.388,6.388,0,0,1,3.246-.8A5.83,5.83,0,0,1,61.043,9.85a6.768,6.768,0,0,1,1.641,4.8v.141a6.566,6.566,0,0,1-1.646,4.705,5.846,5.846,0,0,1-4.459,1.74,5.912,5.912,0,0,1-4.348-1.623,6.348,6.348,0,0,1-1.77-4.4Zm3.949.246a4.718,4.718,0,0,0,.551,2.578,1.835,1.835,0,0,0,1.629.82q2.109,0,2.156-3.246v-.4q0-3.41-2.18-3.41-1.98,0-2.145,2.941Zm16.664,2.648a.912.912,0,0,0-.527-.809,8.021,8.021,0,0,0-2-.633,9.138,9.138,0,0,1-2.437-.861,4.083,4.083,0,0,1-1.465-1.295,3.092,3.092,0,0,1-.5-1.746,3.5,3.5,0,0,1,1.441-2.877A5.938,5.938,0,0,1,69.34,8.086a6.579,6.579,0,0,1,4.031,1.137,3.555,3.555,0,0,1,1.523,2.988H70.934q0-1.523-1.605-1.523a1.591,1.591,0,0,0-1.043.346,1.07,1.07,0,0,0-.422.861.982.982,0,0,0,.516.855,4.872,4.872,0,0,0,1.646.539,14.228,14.228,0,0,1,1.986.5q2.859.984,2.859,3.527a3.321,3.321,0,0,1-1.541,2.824,6.758,6.758,0,0,1-3.99,1.09,6.9,6.9,0,0,1-2.906-.586,4.86,4.86,0,0,1-1.992-1.594,3.609,3.609,0,0,1-.715-2.121h3.691A1.526,1.526,0,0,0,68,18.217a2.41,2.41,0,0,0,1.441.4,1.9,1.9,0,0,0,1.213-.328A1.05,1.05,0,0,0,71.063,17.438Z" transform="translate(1009.952 1903.738)" fill="#3d4e63"/>
    <path id="Trazado_162724" data-name="Trazado 162724" d="M-29.666,0V-17.062h5.5A8.085,8.085,0,0,1-20.1-16.037a7.208,7.208,0,0,1,2.818,2.895A8.739,8.739,0,0,1-16.26-8.953v.785a8.79,8.79,0,0,1-.99,4.2,7.239,7.239,0,0,1-2.789,2.906A7.907,7.907,0,0,1-24.053,0Zm4.113-13.887V-3.164h1.43A3.2,3.2,0,0,0-21.4-4.424a6.173,6.173,0,0,0,.949-3.744v-.738a6.123,6.123,0,0,0-.949-3.727,3.256,3.256,0,0,0-2.766-1.254ZM-7.189,0a4.459,4.459,0,0,1-.375-1.137A3.672,3.672,0,0,1-10.611.234,4.5,4.5,0,0,1-13.658-.85a3.45,3.45,0,0,1-1.254-2.725,3.546,3.546,0,0,1,1.523-3.117,7.761,7.761,0,0,1,4.43-1.055H-7.74v-.671q0-1.755-1.512-1.755a1.236,1.236,0,0,0-1.406,1.39h-3.949a3.54,3.54,0,0,1,1.564-2.985,6.575,6.575,0,0,1,3.99-1.147A5.764,5.764,0,0,1-5.221-11.73,4.115,4.115,0,0,1-3.779-8.484v5.613A5.748,5.748,0,0,0-3.24-.2V0ZM-9.662-2.578a2.2,2.2,0,0,0,1.225-.316,1.983,1.983,0,0,0,.7-.715V-5.637H-8.889q-2.062,0-2.062,1.852a1.131,1.131,0,0,0,.363.873A1.315,1.315,0,0,0-9.662-2.578ZM3.006-15.832v3.152H5.092v2.742H3.006v5.8a1.481,1.481,0,0,0,.258,1,1.383,1.383,0,0,0,1.02.281,5.793,5.793,0,0,0,.984-.07V-.105a7.288,7.288,0,0,1-2.227.34A4.137,4.137,0,0,1,.029-.727,3.939,3.939,0,0,1-.943-3.645V-9.937H-2.561V-12.68H-.943v-3.152ZM5.795-6.457a7.484,7.484,0,0,1,.738-3.381,5.28,5.28,0,0,1,2.121-2.279,6.388,6.388,0,0,1,3.246-.8,5.83,5.83,0,0,1,4.488,1.764,6.768,6.768,0,0,1,1.641,4.8v.141a6.566,6.566,0,0,1-1.646,4.705A5.846,5.846,0,0,1,11.924.234,5.912,5.912,0,0,1,7.576-1.389a6.348,6.348,0,0,1-1.77-4.4Zm3.949.246a4.718,4.718,0,0,0,.551,2.578,1.835,1.835,0,0,0,1.629.82q2.109,0,2.156-3.246v-.4q0-3.41-2.18-3.41-1.98,0-2.145,2.941ZM26.408-3.562a.912.912,0,0,0-.527-.809,8.021,8.021,0,0,0-2-.633,9.138,9.138,0,0,1-2.437-.861A4.083,4.083,0,0,1,19.975-7.16a3.092,3.092,0,0,1-.5-1.746,3.5,3.5,0,0,1,1.441-2.877,5.938,5.938,0,0,1,3.773-1.131,6.579,6.579,0,0,1,4.031,1.137A3.555,3.555,0,0,1,30.24-8.789H26.279q0-1.523-1.605-1.523a1.591,1.591,0,0,0-1.043.346,1.07,1.07,0,0,0-.422.861.982.982,0,0,0,.516.855,4.872,4.872,0,0,0,1.646.539,14.228,14.228,0,0,1,1.986.5q2.859.984,2.859,3.527A3.321,3.321,0,0,1,28.676-.855a6.758,6.758,0,0,1-3.99,1.09,6.9,6.9,0,0,1-2.906-.586,4.86,4.86,0,0,1-1.992-1.594,3.609,3.609,0,0,1-.715-2.121h3.691a1.526,1.526,0,0,0,.586,1.283,2.41,2.41,0,0,0,1.441.4A1.9,1.9,0,0,0,26-2.707,1.05,1.05,0,0,0,26.408-3.562Zm-61.178,21a.912.912,0,0,0-.527-.809,8.021,8.021,0,0,0-2-.633,9.138,9.138,0,0,1-2.437-.861A4.083,4.083,0,0,1-41.2,13.84a3.092,3.092,0,0,1-.5-1.746,3.5,3.5,0,0,1,1.441-2.877,5.938,5.938,0,0,1,3.773-1.131,6.579,6.579,0,0,1,4.031,1.137,3.555,3.555,0,0,1,1.523,2.988H-34.9q0-1.523-1.605-1.523a1.591,1.591,0,0,0-1.043.346,1.07,1.07,0,0,0-.422.861.982.982,0,0,0,.516.855,4.872,4.872,0,0,0,1.646.539,14.228,14.228,0,0,1,1.986.5q2.859.984,2.859,3.527A3.321,3.321,0,0,1-32.5,20.145a6.758,6.758,0,0,1-3.99,1.09,6.9,6.9,0,0,1-2.906-.586,4.86,4.86,0,0,1-1.992-1.594,3.609,3.609,0,0,1-.715-2.121h3.691a1.526,1.526,0,0,0,.586,1.283,2.41,2.41,0,0,0,1.441.4,1.9,1.9,0,0,0,1.213-.328A1.05,1.05,0,0,0-34.77,17.438ZM-24.949,21H-28.91V8.32h3.961Zm-4.2-15.949a1.763,1.763,0,0,1,.609-1.383,2.3,2.3,0,0,1,1.582-.539,2.3,2.3,0,0,1,1.582.539,1.763,1.763,0,0,1,.609,1.383,1.763,1.763,0,0,1-.609,1.383,2.3,2.3,0,0,1-1.582.539,2.3,2.3,0,0,1-1.582-.539A1.763,1.763,0,0,1-29.145,5.051Zm10.359,3.27.129,1.488a4.36,4.36,0,0,1,3.621-1.723A3.21,3.21,0,0,1-11.789,10a4.22,4.22,0,0,1,3.727-1.91q3.855,0,3.961,4.664V21H-8.062V13a2.417,2.417,0,0,0-.328-1.418,1.4,1.4,0,0,0-1.2-.445,1.871,1.871,0,0,0-1.746,1.043l.012.164V21h-3.961V13.02a2.541,2.541,0,0,0-.316-1.441,1.393,1.393,0,0,0-1.207-.445,1.894,1.894,0,0,0-1.734,1.043V21h-3.949V8.32ZM9.926,14.754A7.646,7.646,0,0,1,8.6,19.471,4.264,4.264,0,0,1,5,21.234a3.655,3.655,0,0,1-2.871-1.277v5.918H-1.816V8.32H1.875l.117,1.172A3.656,3.656,0,0,1,4.98,8.086,4.3,4.3,0,0,1,8.625,9.814a7.741,7.741,0,0,1,1.3,4.752Zm-3.949-.246q0-3.375-1.969-3.375a1.859,1.859,0,0,0-1.875,1.008v4.992a1.919,1.919,0,0,0,1.9,1.055q1.887,0,1.945-3.258ZM15.832,21H11.871V3h3.961Zm8.566.234a6.518,6.518,0,0,1-4.723-1.74,6.009,6.009,0,0,1-1.8-4.529v-.328a7.787,7.787,0,0,1,.721-3.434,5.274,5.274,0,0,1,2.1-2.3,6.35,6.35,0,0,1,3.281-.814A5.489,5.489,0,0,1,28.2,9.744a6.516,6.516,0,0,1,1.547,4.623V15.9H21.891a2.846,2.846,0,0,0,.926,1.676,2.755,2.755,0,0,0,1.852.609,3.549,3.549,0,0,0,2.93-1.312l1.8,2.133a5.045,5.045,0,0,1-2.092,1.623A7.069,7.069,0,0,1,24.4,21.234Zm-.445-10.1q-1.734,0-2.062,2.3h3.984v-.3a1.956,1.956,0,0,0-.48-1.471A1.912,1.912,0,0,0,23.953,11.133Zm14.016,6.3a.912.912,0,0,0-.527-.809,8.021,8.021,0,0,0-2-.633A9.138,9.138,0,0,1,33,15.135a4.083,4.083,0,0,1-1.465-1.295,3.092,3.092,0,0,1-.5-1.746,3.5,3.5,0,0,1,1.441-2.877,5.938,5.938,0,0,1,3.773-1.131,6.579,6.579,0,0,1,4.031,1.137A3.555,3.555,0,0,1,41.8,12.211H37.84q0-1.523-1.605-1.523a1.591,1.591,0,0,0-1.043.346,1.07,1.07,0,0,0-.422.861.982.982,0,0,0,.516.855,4.872,4.872,0,0,0,1.646.539,14.228,14.228,0,0,1,1.986.5q2.859.984,2.859,3.527a3.321,3.321,0,0,1-1.541,2.824,6.758,6.758,0,0,1-3.99,1.09,6.9,6.9,0,0,1-2.906-.586,4.86,4.86,0,0,1-1.992-1.594,3.609,3.609,0,0,1-.715-2.121h3.691a1.526,1.526,0,0,0,.586,1.283,2.41,2.41,0,0,0,1.441.4,1.9,1.9,0,0,0,1.213-.328A1.05,1.05,0,0,0,37.969,17.438Z" transform="translate(586.867 1903.738)" fill="#3d4e63"/>
  </g>
</svg>
